<!DOCTYPE svg PUBLIC "-//W3C//DTD SVG 20010904//EN" "http://www.w3.org/TR/2001/REC-SVG-20010904/DTD/svg10.dtd">
<svg version="1.0" xmlns="http://www.w3.org/2000/svg" width="662px" height="187px" viewBox="0 0 6620 1870" preserveAspectRatio="xMidYMid meet">
<g id="layer101" fill="#0a841b" stroke="none">
 <path d="M0 935 l0 -935 3310 0 3310 0 0 935 0 935 -3310 0 -3310 0 0 -935z"/>
 </g>
<g id="layer102" fill="#198b28" stroke="none">
 <path d="M0 935 l0 -935 3310 0 3310 0 0 935 0 935 -3310 0 -3310 0 0 -935z m1023 288 c-13 -2 -35 -2 -50 0 -16 2 -5 4 22 4 28 0 40 -2 28 -4z m180 0 c-7 -2 -21 -2 -30 0 -10 3 -4 5 12 5 17 0 24 -2 18 -5z m3474 -425 c-1 -79 -3 -17 -3 137 0 154 2 218 3 143 2 -75 2 -201 0 -280z m-3360 265 c-2 -21 -4 -6 -4 32 0 39 2 55 4 38 2 -18 2 -50 0 -70z m1620 -150 c-4 -3 -7 0 -7 7 0 7 3 10 7 7 3 -4 3 -10 0 -14z m140 -60 c-4 -3 -7 0 -7 7 0 7 3 10 7 7 3 -4 3 -10 0 -14z m660 0 c-4 -3 -7 0 -7 7 0 7 3 10 7 7 3 -4 3 -10 0 -14z m-2420 -40 c-3 -10 -5 -2 -5 17 0 19 2 27 5 18 2 -10 2 -26 0 -35z m4230 20 c-4 -3 -7 0 -7 7 0 7 3 10 7 7 3 -4 3 -10 0 -14z m-484 -40 c-40 -2 -106 -2 -145 0 -40 1 -8 3 72 3 80 0 112 -2 73 -3z m-438 -113 c3 -5 4 -10 1 -10 -3 0 -8 5 -11 10 -3 6 -4 10 -1 10 3 0 8 -4 11 -10z m-3137 -37 c-60 -2 -156 -2 -215 0 -60 1 -11 3 107 3 118 0 167 -2 108 -3z m1415 0 c-24 -2 -62 -2 -85 0 -24 2 -5 4 42 4 47 0 66 -2 43 -4z m425 0 c-21 -2 -57 -2 -80 0 -24 2 -7 4 37 4 44 0 63 -2 43 -4z m890 0 c-21 -2 -55 -2 -75 0 -21 2 -4 4 37 4 41 0 58 -2 38 -4z m365 0 c-23 -2 -64 -2 -90 0 -26 2 -7 3 42 3 50 0 71 -1 48 -3z m440 0 c-62 -2 -164 -2 -225 0 -62 1 -12 3 112 3 124 0 174 -2 113 -3z m410 0 c-40 -2 -106 -2 -145 0 -40 1 -8 3 72 3 80 0 112 -2 73 -3z"/>
 </g>
<g id="layer103" fill="#217d2b" stroke="none">
 <path d="M0 935 l0 -935 3310 0 3310 0 0 935 0 935 -3310 0 -3310 0 0 -935z m2120 531 c0 -3 -5 -8 -12 -12 -7 -4 -8 -3 -4 4 7 12 16 16 16 8z m155 -6 c3 -5 4 -10 1 -10 -3 0 -8 5 -11 10 -3 6 -4 10 -1 10 3 0 8 -4 11 -10z m-225 -34 c0 -3 -5 -8 -12 -12 -7 -4 -8 -3 -4 4 7 12 16 16 16 8z m295 -6 c3 -5 4 -10 1 -10 -3 0 -8 5 -11 10 -3 6 -4 10 -1 10 3 0 8 -4 11 -10z m70 -40 c3 -5 4 -10 1 -10 -3 0 -8 5 -11 10 -3 6 -4 10 -1 10 3 0 8 -4 11 -10z m55 -36 c0 -2 -9 0 -20 6 -11 6 -20 13 -20 16 0 2 9 0 20 -6 11 -6 20 -13 20 -16z m-540 12 c0 -3 -5 -8 -12 -12 -7 -4 -8 -3 -4 4 7 12 16 16 16 8z m610 -52 c0 -2 -9 0 -20 6 -11 6 -20 13 -20 16 0 2 9 0 20 -6 11 -6 20 -13 20 -16z m-680 12 c0 -3 -5 -8 -12 -12 -7 -4 -8 -3 -4 4 7 12 16 16 16 8z m750 -52 c0 -2 -9 0 -20 6 -11 6 -20 13 -20 16 0 2 9 0 20 -6 11 -6 20 -13 20 -16z m-820 12 c0 -3 -5 -8 -12 -12 -7 -4 -8 -3 -4 4 7 12 16 16 16 8z m875 -44 c-3 -3 -11 0 -18 7 -9 10 -8 11 6 5 10 -3 15 -9 12 -12z m-1637 -9 c-16 -2 -40 -2 -55 0 -16 2 -3 4 27 4 30 0 43 -2 28 -4z m170 0 c-10 -2 -26 -2 -35 0 -10 3 -2 5 17 5 19 0 27 -2 18 -5z m-311 -110 c-2 -21 -4 -6 -4 32 0 39 2 55 4 38 2 -18 2 -50 0 -70z m260 -115 c-1 -40 -3 -8 -3 72 0 80 2 112 3 73 2 -40 2 -106 0 -145z m1806 -51 c7 4 6 -1 -3 -13 -8 -10 -16 -21 -17 -23 -2 -2 -2 65 -1 150 l2 154 3 -138 c3 -105 6 -136 16 -130z m1955 -300 l227 -3 -230 1 -230 0 0 280 0 280 2 -277 3 -278 228 -3z m239 471 c-2 -18 -4 -4 -4 32 0 36 2 50 4 33 2 -18 2 -48 0 -65z m60 -320 c-1 -79 -3 -17 -3 137 0 154 2 218 3 143 2 -75 2 -201 0 -280z m333 408 c0 -3 -5 -8 -12 -12 -7 -4 -8 -3 -4 4 7 12 16 16 16 8z m-3843 -313 c-1 -59 -3 -14 -3 102 0 116 2 164 3 108 2 -56 2 -151 0 -210z m2164 280 c-12 -20 -14 -14 -5 12 4 9 9 14 11 11 3 -2 0 -13 -6 -23z m236 -10 c-3 -10 -5 -4 -5 12 0 17 2 24 5 18 2 -7 2 -21 0 -30z m343 33 c0 -3 -5 -8 -12 -12 -7 -4 -8 -3 -4 4 7 12 16 16 16 8z m190 -20 c0 -3 -5 -8 -12 -12 -7 -4 -8 -3 -4 4 7 12 16 16 16 8z m1090 0 c0 -3 -5 -8 -12 -12 -7 -4 -8 -3 -4 4 7 12 16 16 16 8z m-1300 -10 c0 -3 -5 -8 -12 -12 -7 -4 -8 -3 -4 4 7 12 16 16 16 8z m-2975 -139 l125 -3 -127 1 -128 0 -1 65 0 65 3 -62 4 -62 124 -4z m3932 116 c-4 -3 -7 0 -7 7 0 7 3 10 7 7 3 -4 3 -10 0 -14z m133 13 c0 -2 -8 -10 -17 -17 -16 -13 -17 -12 -4 4 13 16 21 21 21 13z m-1876 -22 c3 -8 2 -12 -4 -9 -6 3 -10 10 -10 16 0 14 7 11 14 -7z m976 12 c0 -3 -5 -8 -12 -12 -7 -4 -8 -3 -4 4 7 12 16 16 16 8z m1090 0 c0 -2 -8 -10 -17 -17 -16 -13 -17 -12 -4 4 13 16 21 21 21 13z m-1679 -33 c-12 -20 -14 -14 -5 12 4 9 9 14 11 11 3 -2 0 -13 -6 -23z m379 23 c0 -2 -8 -10 -17 -17 -16 -13 -17 -12 -4 4 13 16 21 21 21 13z m190 -20 c0 -3 -5 -8 -12 -12 -7 -4 -8 -3 -4 4 7 12 16 16 16 8z m-1495 -16 c3 -5 4 -10 1 -10 -3 0 -8 5 -11 10 -3 6 -4 10 -1 10 3 0 8 -4 11 -10z m2565 -9 c-5 -11 -15 -23 -21 -27 -6 -3 -3 5 6 20 20 30 30 35 15 7z m-2600 5 c0 -2 -8 -10 -17 -17 -16 -13 -17 -12 -4 4 13 16 21 21 21 13z m429 -51 c0 -5 -6 1 -14 15 -8 14 -14 30 -14 35 0 6 6 -1 14 -15 8 -14 14 -29 14 -35z m1965 30 c-9 -14 -18 -25 -21 -25 -5 0 5 18 20 38 17 22 18 13 1 -13z m-2339 -5 c3 -5 4 -10 1 -10 -3 0 -8 5 -11 10 -3 6 -4 10 -1 10 3 0 8 -4 11 -10z m1245 6 c0 -2 -8 -10 -17 -17 -16 -13 -17 -12 -4 4 13 16 21 21 21 13z m-263 -58 c-2 -13 -4 -5 -4 17 -1 22 1 32 4 23 2 -10 2 -28 0 -40z m222 17 c7 3 8 0 5 -9 -8 -22 -16 -20 -38 12 l-20 27 22 -18 c11 -11 25 -16 31 -12z m231 21 c0 -2 -8 -10 -17 -17 -16 -13 -17 -12 -4 4 13 16 21 21 21 13z m840 0 c0 -3 -4 -8 -10 -11 -5 -3 -10 -1 -10 4 0 6 5 11 10 11 6 0 10 -2 10 -4z m-2255 -16 c3 -5 4 -10 1 -10 -3 0 -8 5 -11 10 -3 6 -4 10 -1 10 3 0 8 -4 11 -10z m2486 -3 c-6 -8 -7 -18 -3 -22 4 -5 1 -5 -6 -1 -10 6 -10 11 -1 22 6 8 14 14 16 14 3 0 0 -6 -6 -13z m-2601 -1 c0 -3 -5 -8 -12 -12 -7 -4 -8 -3 -4 4 7 12 16 16 16 8z m135 -26 c3 -5 4 -10 1 -10 -3 0 -8 5 -11 10 -3 6 -4 10 -1 10 3 0 8 -4 11 -10z m1365 6 c0 -3 -5 -8 -12 -12 -7 -4 -8 -3 -4 4 7 12 16 16 16 8z m-1520 -10 c0 -3 -5 -8 -12 -12 -7 -4 -8 -3 -4 4 7 12 16 16 16 8z m1857 -3 c-4 -3 -10 -3 -14 0 -3 4 0 7 7 7 7 0 10 -3 7 -7z m788 -3 c3 -5 4 -10 1 -10 -3 0 -8 5 -11 10 -3 6 -4 10 -1 10 3 0 8 -4 11 -10z m-1684 -27 c-12 -20 -14 -14 -5 12 4 9 9 14 11 11 3 -2 0 -13 -6 -23z m-751 -47 c0 -6 -11 5 -25 24 -14 19 -25 36 -25 39 0 10 49 -53 50 -63z m580 56 c0 -4 -19 -6 -42 -4 -71 5 -77 10 -15 11 31 0 57 -2 57 -7z m710 4 c0 -3 -5 -8 -12 -12 -7 -4 -8 -3 -4 4 7 12 16 16 16 8z m617 -88 c-2 -18 -4 -4 -4 32 0 36 2 50 4 33 2 -18 2 -48 0 -65z m-4060 -150 c-1 -46 -3 -11 -3 77 0 88 2 125 3 83 2 -42 2 -114 0 -160z m1923 228 c0 -3 -5 -8 -12 -12 -7 -4 -8 -3 -4 4 7 12 16 16 16 8z m1500 -20 c0 -3 -5 -8 -12 -12 -7 -4 -8 -3 -4 4 7 12 16 16 16 8z m1215 -6 c3 -5 4 -10 1 -10 -3 0 -8 5 -11 10 -3 6 -4 10 -1 10 3 0 8 -4 11 -10z m-2158 -27 c-4 -3 -7 0 -7 7 0 7 3 10 7 7 3 -4 3 -10 0 -14z m183 -18 c0 -5 -5 -3 -10 5 -5 8 -10 20 -10 25 0 6 5 3 10 -5 5 -8 10 -19 10 -25z m740 21 c0 -3 -5 -8 -12 -12 -7 -4 -8 -3 -4 4 7 12 16 16 16 8z m-703 -23 c-4 -3 -7 0 -7 7 0 7 3 10 7 7 3 -4 3 -10 0 -14z m340 -30 c-3 -10 -5 -2 -5 17 0 19 2 27 5 18 2 -10 2 -26 0 -35z m1280 30 c-4 -3 -7 0 -7 7 0 7 3 10 7 7 3 -4 3 -10 0 -14z m-3812 -23 c4 -7 -35 -10 -119 -10 l-125 0 -4 -37 c-4 -33 -4 -32 -4 8 l1 47 122 1 c76 1 125 -2 129 -9z m3985 -23 c0 -12 -4 -28 -8 -34 -5 -7 -8 4 -7 26 0 22 3 37 8 34 4 -2 7 -14 7 -26z m167 -29 c-2 -13 -4 -5 -4 17 -1 22 1 32 4 23 2 -10 2 -28 0 -40z m-2624 2 c9 -12 9 -13 -3 -3 -9 9 -17 9 -26 2 -10 -8 -10 -5 -1 15 7 14 14 20 16 13 2 -7 8 -19 14 -27z m644 23 c-4 -3 -7 0 -7 7 0 7 3 10 7 7 3 -4 3 -10 0 -14z m553 -18 l25 -30 -27 24 c-16 14 -28 29 -28 34 0 6 1 8 3 6 1 -2 13 -17 27 -34z m196 3 l29 -33 -32 29 c-31 28 -38 36 -30 36 2 0 16 -15 33 -32z m361 15 c-4 -3 -7 0 -7 7 0 7 3 10 7 7 3 -4 3 -10 0 -14z m-946 -20 c-12 -20 -14 -14 -5 12 4 9 9 14 11 11 3 -2 0 -13 -6 -23z m-851 -27 c0 -3 -5 -8 -12 -12 -7 -4 -8 -3 -4 4 7 12 16 16 16 8z m2335 -6 c3 -5 1 -10 -4 -10 -6 0 -11 5 -11 10 0 6 2 10 4 10 3 0 8 -4 11 -10z m132 3 c-4 -3 -10 -3 -14 0 -3 4 0 7 7 7 7 0 10 -3 7 -7z m-454 -10 c-40 -2 -106 -2 -145 0 -40 1 -8 3 72 3 80 0 112 -2 73 -3z m-1938 -13 c3 -5 4 -10 1 -10 -3 0 -8 5 -11 10 -3 6 -4 10 -1 10 3 0 8 -4 11 -10z m1225 -15 c13 -14 21 -25 18 -25 -2 0 -15 11 -28 25 -13 14 -21 25 -18 25 2 0 15 -11 28 -25z m206 -7 l29 -33 -32 29 c-18 17 -33 31 -33 33 0 8 8 1 36 -29z m-2859 -40 c-2 -13 -4 -5 -4 17 -1 22 1 32 4 23 2 -10 2 -28 0 -40z m2400 5 c-3 -10 -5 -2 -5 17 0 19 2 27 5 18 2 -10 2 -26 0 -35z m-1077 33 c0 -3 -5 -8 -12 -12 -7 -4 -8 -3 -4 4 7 12 16 16 16 8z m2680 -10 c0 -3 -5 -8 -12 -12 -7 -4 -8 -3 -4 4 7 12 16 16 16 8z m-2545 -16 c3 -5 4 -10 1 -10 -3 0 -8 5 -11 10 -3 6 -4 10 -1 10 3 0 8 -4 11 -10z m-155 -4 c0 -3 -5 -8 -12 -12 -7 -4 -8 -3 -4 4 7 12 16 16 16 8z m1400 -21 c13 -14 21 -25 18 -25 -2 0 -15 11 -28 25 -13 14 -21 25 -18 25 2 0 15 -11 28 -25z m-1220 -15 c6 -11 8 -20 6 -20 -3 0 -10 9 -16 20 -6 11 -8 20 -6 20 3 0 10 -9 16 -20z m1435 0 c10 -11 16 -20 13 -20 -3 0 -13 9 -23 20 -10 11 -16 20 -13 20 3 0 13 -9 23 -20z m1025 -4 c0 -3 -5 -8 -12 -12 -7 -4 -8 -3 -4 4 7 12 16 16 16 8z m-2677 -21 c-3 -9 -8 -14 -10 -11 -3 3 -2 9 2 15 9 16 15 13 8 -4z m2604 -12 c-4 -3 -10 -3 -14 0 -3 4 0 7 7 7 7 0 10 -3 7 -7z m-4075 -10 c-62 -2 -161 -2 -220 0 -59 1 -8 3 113 3 121 0 169 -2 107 -3z m1411 0 c-24 -2 -62 -2 -85 0 -24 2 -5 4 42 4 47 0 66 -2 43 -4z m430 0 c-24 -2 -62 -2 -85 0 -24 2 -5 4 42 4 47 0 66 -2 43 -4z m890 0 c-24 -2 -62 -2 -85 0 -24 2 -5 4 42 4 47 0 66 -2 43 -4z m365 0 c-27 -2 -69 -2 -95 0 -27 2 -5 3 47 3 52 0 74 -1 48 -3z m870 0 c-42 -2 -114 -2 -160 0 -46 1 -11 3 77 3 88 0 125 -2 83 -3z m-3673 -43 c3 -5 4 -10 1 -10 -3 0 -8 5 -11 10 -3 6 -4 10 -1 10 3 0 8 -4 11 -10z m665 -84 c0 -3 -5 -8 -12 -12 -7 -4 -8 -3 -4 4 7 12 16 16 16 8z m-405 -66 c3 -5 4 -10 1 -10 -3 0 -8 5 -11 10 -3 6 -4 10 -1 10 3 0 8 -4 11 -10z m70 -40 c3 -5 4 -10 1 -10 -3 0 -8 5 -11 10 -3 6 -4 10 -1 10 3 0 8 -4 11 -10z"/>
 </g>
<g id="layer104" fill="#2f8d3a" stroke="none">
 <path d="M0 935 l0 -935 680 0 680 0 0 43 1 42 170 98 c94 54 176 97 183 95 7 -2 88 -46 179 -98 l166 -95 1 -42 0 -43 355 0 355 0 0 63 0 63 100 57 100 57 100 -57 100 -57 0 -63 0 -63 340 0 339 0 51 30 52 30 53 -30 52 -30 1282 0 1281 0 0 935 0 935 -3310 0 -3310 0 0 -935z m2120 531 c0 -3 -5 -8 -12 -12 -7 -4 -8 -3 -4 4 7 12 16 16 16 8z m155 -6 c3 -5 4 -10 1 -10 -3 0 -8 5 -11 10 -3 6 -4 10 -1 10 3 0 8 -4 11 -10z m-225 -34 c0 -3 -5 -8 -12 -12 -7 -4 -8 -3 -4 4 7 12 16 16 16 8z m295 -6 c3 -5 4 -10 1 -10 -3 0 -8 5 -11 10 -3 6 -4 10 -1 10 3 0 8 -4 11 -10z m70 -40 c3 -5 4 -10 1 -10 -3 0 -8 5 -11 10 -3 6 -4 10 -1 10 3 0 8 -4 11 -10z m55 -36 c0 -2 -9 0 -20 6 -11 6 -20 13 -20 16 0 2 9 0 20 -6 11 -6 20 -13 20 -16z m-540 12 c0 -3 -5 -8 -12 -12 -7 -4 -8 -3 -4 4 7 12 16 16 16 8z m610 -52 c0 -2 -9 0 -20 6 -11 6 -20 13 -20 16 0 2 9 0 20 -6 11 -6 20 -13 20 -16z m-680 12 c0 -3 -5 -8 -12 -12 -7 -4 -8 -3 -4 4 7 12 16 16 16 8z m750 -52 c0 -2 -9 0 -20 6 -11 6 -20 13 -20 16 0 2 9 0 20 -6 11 -6 20 -13 20 -16z m-820 12 c0 -3 -5 -8 -12 -12 -7 -4 -8 -3 -4 4 7 12 16 16 16 8z m875 -44 c-3 -3 -11 0 -18 7 -9 10 -8 11 6 5 10 -3 15 -9 12 -12z m-1652 -9 c-24 -2 -62 -2 -85 0 -24 2 -5 4 42 4 47 0 66 -2 43 -4z m305 -95 l3 -97 127 -4 127 -3 -132 -2 -133 -2 0 100 0 99 -77 4 -78 3 80 0 80 -1 3 -97z m-350 -481 l77 -3 -80 0 -80 1 0 280 0 280 2 -277 3 -277 78 -4z m410 0 l227 -3 -230 1 -230 0 0 280 0 280 2 -277 3 -278 228 -3z m1575 300 c7 4 6 -1 -3 -13 -8 -10 -16 -21 -17 -23 -2 -2 -2 65 -1 150 l2 154 3 -138 c3 -105 6 -136 16 -130z m1955 -300 l227 -3 -230 1 -230 0 0 280 0 280 2 -277 3 -278 228 -3z m239 471 c-2 -18 -4 -4 -4 32 0 36 2 50 4 33 2 -18 2 -48 0 -65z m60 -320 c-1 -79 -3 -17 -3 137 0 154 2 218 3 143 2 -75 2 -201 0 -280z m333 408 c0 -3 -5 -8 -12 -12 -7 -4 -8 -3 -4 4 7 12 16 16 16 8z m-3843 -313 c-1 -59 -3 -14 -3 102 0 116 2 164 3 108 2 -56 2 -151 0 -210z m2164 280 c-12 -20 -14 -14 -5 12 4 9 9 14 11 11 3 -2 0 -13 -6 -23z m236 -10 c-3 -10 -5 -4 -5 12 0 17 2 24 5 18 2 -7 2 -21 0 -30z m343 33 c0 -3 -5 -8 -12 -12 -7 -4 -8 -3 -4 4 7 12 16 16 16 8z m190 -20 c0 -3 -5 -8 -12 -12 -7 -4 -8 -3 -4 4 7 12 16 16 16 8z m1090 0 c0 -3 -5 -8 -12 -12 -7 -4 -8 -3 -4 4 7 12 16 16 16 8z m-1300 -10 c0 -3 -5 -8 -12 -12 -7 -4 -8 -3 -4 4 7 12 16 16 16 8z m957 -23 c-4 -3 -7 0 -7 7 0 7 3 10 7 7 3 -4 3 -10 0 -14z m133 13 c0 -2 -8 -10 -17 -17 -16 -13 -17 -12 -4 4 13 16 21 21 21 13z m-1876 -22 c3 -8 2 -12 -4 -9 -6 3 -10 10 -10 16 0 14 7 11 14 -7z m976 12 c0 -3 -5 -8 -12 -12 -7 -4 -8 -3 -4 4 7 12 16 16 16 8z m1090 0 c0 -2 -8 -10 -17 -17 -16 -13 -17 -12 -4 4 13 16 21 21 21 13z m-1679 -33 c-12 -20 -14 -14 -5 12 4 9 9 14 11 11 3 -2 0 -13 -6 -23z m379 23 c0 -2 -8 -10 -17 -17 -16 -13 -17 -12 -4 4 13 16 21 21 21 13z m190 -20 c0 -3 -5 -8 -12 -12 -7 -4 -8 -3 -4 4 7 12 16 16 16 8z m-1495 -16 c3 -5 4 -10 1 -10 -3 0 -8 5 -11 10 -3 6 -4 10 -1 10 3 0 8 -4 11 -10z m2565 -9 c-5 -11 -15 -23 -21 -27 -6 -3 -3 5 6 20 20 30 30 35 15 7z m-2600 5 c0 -2 -8 -10 -17 -17 -16 -13 -17 -12 -4 4 13 16 21 21 21 13z m429 -51 c0 -5 -6 1 -14 15 -8 14 -14 30 -14 35 0 6 6 -1 14 -15 8 -14 14 -29 14 -35z m1965 30 c-9 -14 -18 -25 -21 -25 -5 0 5 18 20 38 17 22 18 13 1 -13z m-2339 -5 c3 -5 4 -10 1 -10 -3 0 -8 5 -11 10 -3 6 -4 10 -1 10 3 0 8 -4 11 -10z m1245 6 c0 -2 -8 -10 -17 -17 -16 -13 -17 -12 -4 4 13 16 21 21 21 13z m-263 -58 c-2 -13 -4 -5 -4 17 -1 22 1 32 4 23 2 -10 2 -28 0 -40z m222 17 c7 3 8 0 5 -9 -8 -22 -16 -20 -38 12 l-20 27 22 -18 c11 -11 25 -16 31 -12z m231 21 c0 -2 -8 -10 -17 -17 -16 -13 -17 -12 -4 4 13 16 21 21 21 13z m840 0 c0 -3 -4 -8 -10 -11 -5 -3 -10 -1 -10 4 0 6 5 11 10 11 6 0 10 -2 10 -4z m-2255 -16 c3 -5 4 -10 1 -10 -3 0 -8 5 -11 10 -3 6 -4 10 -1 10 3 0 8 -4 11 -10z m2486 -3 c-6 -8 -7 -18 -3 -22 4 -5 1 -5 -6 -1 -10 6 -10 11 -1 22 6 8 14 14 16 14 3 0 0 -6 -6 -13z m-2601 -1 c0 -3 -5 -8 -12 -12 -7 -4 -8 -3 -4 4 7 12 16 16 16 8z m135 -26 c3 -5 4 -10 1 -10 -3 0 -8 5 -11 10 -3 6 -4 10 -1 10 3 0 8 -4 11 -10z m1365 6 c0 -3 -5 -8 -12 -12 -7 -4 -8 -3 -4 4 7 12 16 16 16 8z m-1520 -10 c0 -3 -5 -8 -12 -12 -7 -4 -8 -3 -4 4 7 12 16 16 16 8z m1857 -3 c-4 -3 -10 -3 -14 0 -3 4 0 7 7 7 7 0 10 -3 7 -7z m788 -3 c3 -5 4 -10 1 -10 -3 0 -8 5 -11 10 -3 6 -4 10 -1 10 3 0 8 -4 11 -10z m-1684 -27 c-12 -20 -14 -14 -5 12 4 9 9 14 11 11 3 -2 0 -13 -6 -23z m-751 -47 c0 -6 -11 5 -25 24 -14 19 -25 36 -25 39 0 10 49 -53 50 -63z m580 56 c0 -4 -19 -6 -42 -4 -71 5 -77 10 -15 11 31 0 57 -2 57 -7z m710 4 c0 -3 -5 -8 -12 -12 -7 -4 -8 -3 -4 4 7 12 16 16 16 8z m617 -88 c-2 -18 -4 -4 -4 32 0 36 2 50 4 33 2 -18 2 -48 0 -65z m-4060 -160 c-1 -46 -3 -9 -3 82 0 91 2 128 3 83 2 -46 2 -120 0 -165z m1923 238 c0 -3 -5 -8 -12 -12 -7 -4 -8 -3 -4 4 7 12 16 16 16 8z m1500 -20 c0 -3 -5 -8 -12 -12 -7 -4 -8 -3 -4 4 7 12 16 16 16 8z m1215 -6 c3 -5 4 -10 1 -10 -3 0 -8 5 -11 10 -3 6 -4 10 -1 10 3 0 8 -4 11 -10z m-2158 -27 c-4 -3 -7 0 -7 7 0 7 3 10 7 7 3 -4 3 -10 0 -14z m183 -18 c0 -5 -5 -3 -10 5 -5 8 -10 20 -10 25 0 6 5 3 10 -5 5 -8 10 -19 10 -25z m740 21 c0 -3 -5 -8 -12 -12 -7 -4 -8 -3 -4 4 7 12 16 16 16 8z m-703 -23 c-4 -3 -7 0 -7 7 0 7 3 10 7 7 3 -4 3 -10 0 -14z m340 -30 c-3 -10 -5 -2 -5 17 0 19 2 27 5 18 2 -10 2 -26 0 -35z m1280 30 c-4 -3 -7 0 -7 7 0 7 3 10 7 7 3 -4 3 -10 0 -14z m-3812 -23 c4 -7 -35 -10 -119 -10 l-125 0 -4 -37 c-3 -36 -4 -35 -5 8 l-2 47 124 1 c77 1 127 -2 131 -9z m3985 -23 c0 -12 -4 -28 -8 -34 -5 -7 -8 4 -7 26 0 22 3 37 8 34 4 -2 7 -14 7 -26z m167 -29 c-2 -13 -4 -5 -4 17 -1 22 1 32 4 23 2 -10 2 -28 0 -40z m-2624 2 c9 -12 9 -13 -3 -3 -9 9 -17 9 -26 2 -10 -8 -10 -5 -1 15 7 14 14 20 16 13 2 -7 8 -19 14 -27z m644 23 c-4 -3 -7 0 -7 7 0 7 3 10 7 7 3 -4 3 -10 0 -14z m553 -18 l25 -30 -27 24 c-16 14 -28 29 -28 34 0 6 1 8 3 6 1 -2 13 -17 27 -34z m196 3 l29 -33 -32 29 c-31 28 -38 36 -30 36 2 0 16 -15 33 -32z m361 15 c-4 -3 -7 0 -7 7 0 7 3 10 7 7 3 -4 3 -10 0 -14z m-946 -20 c-12 -20 -14 -14 -5 12 4 9 9 14 11 11 3 -2 0 -13 -6 -23z m-851 -27 c0 -3 -5 -8 -12 -12 -7 -4 -8 -3 -4 4 7 12 16 16 16 8z m2335 -6 c3 -5 1 -10 -4 -10 -6 0 -11 5 -11 10 0 6 2 10 4 10 3 0 8 -4 11 -10z m132 3 c-4 -3 -10 -3 -14 0 -3 4 0 7 7 7 7 0 10 -3 7 -7z m-454 -10 c-40 -2 -107 -2 -150 0 -43 1 -10 3 72 3 83 0 118 -2 78 -3z m-1938 -13 c3 -5 4 -10 1 -10 -3 0 -8 5 -11 10 -3 6 -4 10 -1 10 3 0 8 -4 11 -10z m1225 -15 c13 -14 21 -25 18 -25 -2 0 -15 11 -28 25 -13 14 -21 25 -18 25 2 0 15 -11 28 -25z m206 -7 l29 -33 -32 29 c-18 17 -33 31 -33 33 0 8 8 1 36 -29z m-2859 -40 c-2 -13 -4 -5 -4 17 -1 22 1 32 4 23 2 -10 2 -28 0 -40z m2400 5 c-3 -10 -5 -2 -5 17 0 19 2 27 5 18 2 -10 2 -26 0 -35z m-1077 33 c0 -3 -5 -8 -12 -12 -7 -4 -8 -3 -4 4 7 12 16 16 16 8z m2680 -10 c0 -3 -5 -8 -12 -12 -7 -4 -8 -3 -4 4 7 12 16 16 16 8z m-2545 -16 c3 -5 4 -10 1 -10 -3 0 -8 5 -11 10 -3 6 -4 10 -1 10 3 0 8 -4 11 -10z m-155 -4 c0 -3 -5 -8 -12 -12 -7 -4 -8 -3 -4 4 7 12 16 16 16 8z m1400 -21 c13 -14 21 -25 18 -25 -2 0 -15 11 -28 25 -13 14 -21 25 -18 25 2 0 15 -11 28 -25z m-1220 -15 c6 -11 8 -20 6 -20 -3 0 -10 9 -16 20 -6 11 -8 20 -6 20 3 0 10 -9 16 -20z m1435 0 c10 -11 16 -20 13 -20 -3 0 -13 9 -23 20 -10 11 -16 20 -13 20 3 0 13 -9 23 -20z m1025 -4 c0 -3 -5 -8 -12 -12 -7 -4 -8 -3 -4 4 7 12 16 16 16 8z m-2677 -21 c-3 -9 -8 -14 -10 -11 -3 3 -2 9 2 15 9 16 15 13 8 -4z m2604 -12 c-4 -3 -10 -3 -14 0 -3 4 0 7 7 7 7 0 10 -3 7 -7z m-2664 -10 c-24 -2 -62 -2 -85 0 -24 2 -5 4 42 4 47 0 66 -2 43 -4z m430 0 c-24 -2 -62 -2 -85 0 -24 2 -5 4 42 4 47 0 66 -2 43 -4z m890 0 c-24 -2 -62 -2 -85 0 -24 2 -5 4 42 4 47 0 66 -2 43 -4z m365 0 c-27 -2 -69 -2 -95 0 -27 2 -5 3 47 3 52 0 74 -1 48 -3z m870 0 c-42 -2 -114 -2 -160 0 -46 1 -11 3 77 3 88 0 125 -2 83 -3z m-3673 -43 c3 -5 4 -10 1 -10 -3 0 -8 5 -11 10 -3 6 -4 10 -1 10 3 0 8 -4 11 -10z m665 -84 c0 -3 -5 -8 -12 -12 -7 -4 -8 -3 -4 4 7 12 16 16 16 8z m-405 -66 c3 -5 4 -10 1 -10 -3 0 -8 5 -11 10 -3 6 -4 10 -1 10 3 0 8 -4 11 -10z m70 -40 c3 -5 4 -10 1 -10 -3 0 -8 5 -11 10 -3 6 -4 10 -1 10 3 0 8 -4 11 -10z"/>
 </g>
<g id="layer105" fill="#3d9d4a" stroke="none">
 <path d="M0 1752 l0 -118 98 -57 97 -56 0 -365 c0 -200 -4 -368 -8 -373 -5 -4 -47 -31 -95 -58 l-87 -50 -3 -338 -2 -337 44 0 c43 0 45 1 48 32 3 29 12 37 84 79 l81 46 82 -46 c75 -43 81 -48 81 -78 l0 -33 464 0 465 0 3 42 3 43 177 102 177 103 175 -101 176 -101 0 -44 0 -44 350 0 349 0 3 62 3 63 60 36 c33 19 79 46 103 59 l42 24 43 -24 c23 -13 69 -40 102 -59 l60 -36 3 -63 3 -62 330 0 329 0 56 32 56 31 58 -31 58 -32 1276 0 1276 0 0 935 0 935 -3138 0 -3138 0 -45 -28 c-93 -59 -99 -59 -183 -13 -116 64 -116 64 -116 -77z m1552 9 l153 -89 2 -189 3 -188 -157 -89 -156 -90 -39 21 -38 21 0 -64 0 -63 128 -4 127 -3 -132 -2 -133 -2 0 100 0 100 -80 0 -80 0 0 -285 0 -285 228 -2 227 -2 -230 -6 c-126 -3 -224 -7 -217 -8 10 -1 12 -30 10 -118 l-3 -117 -90 -52 c-49 -28 -150 -86 -222 -128 l-133 -77 -222 129 -223 129 -3 261 -2 260 32 17 c18 9 103 57 188 107 85 49 173 100 195 112 l41 23 72 -44 c40 -24 74 -44 77 -44 2 0 5 30 7 68 l3 67 85 1 85 0 -82 -3 -83 -4 0 -284 0 -285 80 0 80 0 2 283 c1 155 4 229 5 164 l4 -118 32 -19 c18 -11 35 -20 39 -20 4 0 9 64 10 143 l3 142 85 6 85 5 -67 2 c-53 2 -79 8 -117 29 -47 27 -50 30 -54 78 -3 27 -4 112 -3 188 l2 138 79 43 c44 24 114 64 155 89 41 25 78 46 82 46 3 1 75 -39 160 -88z m-742 -101 l45 -26 2 -106 1 -105 -76 -44 c-114 -66 -103 -65 -203 -7 l-89 52 0 106 0 106 92 51 92 51 46 -26 c25 -14 65 -38 90 -52z m1594 -272 c116 -67 228 -132 249 -145 l37 -23 -2 -283 -3 -282 -2 282 -3 281 -245 142 -245 141 -55 -31 c-30 -17 -55 -29 -55 -26 0 5 100 66 109 66 2 0 99 -55 215 -122z m-334 48 c0 -2 -69 -44 -152 -91 -184 -105 -175 -100 -165 -89 7 8 307 183 315 184 1 0 2 -2 2 -4z m-347 -204 c-22 -17 -23 -21 -26 -297 l-2 -280 -3 282 c-2 281 -2 282 20 297 30 22 39 20 11 -2z m1215 -152 l3 -144 59 89 c33 50 66 90 72 90 7 0 38 -37 68 -83 l55 -82 3 130 c2 81 6 129 12 125 13 -8 13 -272 1 -279 -5 -3 -37 37 -71 89 -33 52 -64 95 -68 95 -4 0 -36 -45 -72 -100 l-65 -101 -3 153 -2 153 -66 -3 c-41 -2 -71 1 -78 8 -8 8 9 10 69 8 l80 -3 3 -145z m427 140 c-3 -5 -35 -10 -70 -10 -35 0 -67 5 -70 10 -4 6 22 10 70 10 48 0 74 -4 70 -10z m215 0 c-20 -13 -137 -13 -145 0 -4 6 24 10 77 10 57 0 78 -3 68 -10z m463 -1 c-6 -6 -41 -9 -87 -7 l-76 3 -22 -52 -22 -53 -88 0 c-49 0 -98 4 -108 10 -17 9 -47 76 -38 86 3 2 10 -14 17 -36 l12 -40 102 0 102 0 22 50 22 50 87 0 c63 0 85 -3 77 -11z m212 1 c-3 -5 -37 -10 -75 -10 -38 0 -72 5 -75 10 -4 6 23 10 75 10 52 0 79 -4 75 -10z m380 -1 c-5 -7 -40 -10 -96 -8 l-90 3 -66 -99 c-36 -55 -67 -102 -69 -104 -2 -2 -14 10 -28 25 -23 26 -25 37 -24 104 l2 75 5 -70 c4 -42 13 -80 23 -94 10 -14 19 -23 21 -20 4 4 49 69 106 152 l32 47 95 0 c66 0 93 -3 89 -11z m511 -69 l1 -75 -6 70 -6 70 -228 0 -227 0 0 -282 0 -283 230 -3 230 -3 -232 1 -233 0 -3 280 c-1 154 0 285 3 293 3 10 55 12 237 10 l233 -3 1 -75z m217 69 c-7 -7 -38 -10 -82 -7 l-71 4 0 -284 0 -283 161 2 c88 0 163 -2 167 -5 3 -4 -70 -5 -164 -4 l-169 3 -3 280 c-1 154 0 285 3 292 3 9 30 13 87 13 60 0 79 -3 71 -11z m362 1 c-3 -5 -42 -10 -85 -10 -43 0 -82 5 -85 10 -4 6 27 10 85 10 58 0 89 -4 85 -10z m-2267 -100 c23 -52 75 -175 116 -273 42 -99 76 -184 75 -190 0 -7 -4 -2 -9 10 -5 12 -39 93 -76 180 -37 87 -86 204 -110 261 -41 96 -50 122 -40 111 2 -2 22 -47 44 -99z m-678 -185 c0 -165 -4 -266 -10 -270 -7 -4 -10 88 -10 270 0 182 3 274 10 270 6 -4 10 -105 10 -270z m1254 206 c-15 -34 -28 -60 -30 -58 -2 2 8 31 23 65 14 34 28 60 30 58 2 -2 -8 -31 -23 -65z m144 -494 l77 -3 -80 0 -80 1 0 280 0 280 2 -277 3 -277 78 -4z m466 551 c-5 -7 -52 -78 -106 -157 -82 -121 -96 -147 -86 -160 7 -9 44 -52 82 -96 93 -107 115 -137 41 -56 -33 36 -81 88 -106 115 l-46 49 111 158 c61 88 112 159 114 159 2 0 0 -6 -4 -12z m764 -138 c23 0 35 13 76 75 27 41 51 75 53 75 3 0 -5 -15 -16 -32 -12 -18 -36 -56 -54 -85 -28 -46 -36 -52 -64 -53 l-33 0 2 88 2 87 3 -77 c4 -77 4 -78 31 -78z m326 138 c-4 -7 -32 -48 -62 -91 l-55 -78 35 -32 c55 -51 71 -89 66 -167 -3 -55 -9 -74 -32 -105 -27 -36 -94 -75 -126 -74 -8 0 2 7 23 14 56 21 92 50 111 89 18 39 21 137 5 169 -17 32 -71 87 -86 87 -7 0 -13 2 -13 4 0 7 131 196 136 196 3 0 2 -6 -2 -12z m-2347 -405 c-1 -76 -3 -14 -3 137 0 151 2 213 3 138 2 -76 2 -200 0 -275z m1606 269 l-143 -3 0 -24 0 -24 133 -3 132 -3 1 -68 0 -67 -3 62 -4 63 -110 -3 c-147 -5 -159 -2 -159 46 l0 37 147 -5 148 -5 -142 -3z m-1021 -69 c-17 -37 -53 -124 -82 -193 -60 -146 -74 -170 -98 -169 -13 0 -12 2 5 9 12 5 24 19 28 32 4 13 20 50 35 83 15 33 51 117 80 187 30 70 56 126 58 124 2 -2 -10 -35 -26 -73z m-2385 -70 c-2 -21 -4 -6 -4 32 0 39 2 55 4 38 2 -18 2 -50 0 -70z m2198 50 c-4 -10 -17 -45 -28 -77 -12 -33 -23 -53 -25 -45 -2 8 -13 36 -23 62 -11 27 -18 51 -16 53 2 3 12 -17 22 -43 l19 -48 22 50 21 50 -51 6 -51 6 59 1 c52 2 57 0 51 -15z m1729 -65 c50 -22 46 -89 -5 -107 -18 -6 -56 -11 -85 -11 l-54 0 0 65 0 65 60 0 c32 0 70 -5 84 -12z m-3949 -28 c4 -7 -35 -10 -119 -10 l-125 0 -4 -42 c-3 -42 -4 -42 -5 8 l-2 52 124 1 c77 1 127 -2 131 -9z m1590 -149 l50 -80 85 -4 85 -3 -87 -2 -87 -2 -61 100 c-34 55 -63 100 -65 100 -2 0 -31 -45 -65 -100 l-62 -100 -91 2 -92 2 90 3 91 4 64 107 65 108 15 -27 c8 -15 37 -63 65 -108z m1384 -82 l96 -5 -96 -2 -96 -2 -84 101 -84 100 -6 -93 -5 -93 -2 108 -2 108 91 -108 91 -108 97 -6z m554 214 c3 -5 -50 -8 -116 -9 l-122 -1 -3 -26 -3 -26 148 -4 148 -3 -152 -2 -153 -2 0 40 0 40 124 0 c69 0 127 -3 129 -7z m-3561 -60 c-40 -2 -103 -2 -140 0 -37 2 -4 3 73 3 77 0 107 -2 67 -3z m85 -110 c-2 -21 -4 -6 -4 32 0 39 2 55 4 38 2 -18 2 -50 0 -70z m3533 26 c0 -37 -4 -58 -10 -54 -18 11 -12 115 7 115 2 0 3 -27 3 -61z m-3410 -95 c0 -2 -9 0 -20 6 -11 6 -20 13 -20 16 0 2 9 0 20 -6 11 -6 20 -13 20 -16z m940 21 c0 -2 -13 -11 -30 -20 -38 -19 -40 -11 -2 9 31 17 32 18 32 11z m1007 -12 c-4 -3 -10 -3 -14 0 -3 4 0 7 7 7 7 0 10 -3 7 -7z m-1769 -108 c83 -47 152 -89 152 -91 0 -3 -3 -3 -7 -1 -5 3 -77 44 -160 92 -84 47 -153 89 -153 91 0 3 3 3 8 1 4 -3 76 -44 160 -92z m692 80 c0 -4 -89 -57 -195 -115 -103 -57 -52 -21 72 51 128 74 123 71 123 64z m-260 -150 c0 -2 -13 -11 -30 -20 -38 -19 -40 -11 -2 9 31 17 32 18 32 11z m-115 -60 c25 14 45 24 45 21 0 -3 -20 -17 -45 -31 l-45 -27 -55 32 c-30 17 -55 34 -55 36 0 3 25 -9 55 -26 l55 -32 45 27z"/>
 <path d="M1322 1195 c0 -16 2 -22 5 -12 2 9 2 23 0 30 -3 6 -5 -1 -5 -18z"/>
 <path d="M928 633 c23 -2 61 -2 85 0 23 2 4 4 -43 4 -47 0 -66 -2 -42 -4z"/>
 <path d="M5387 903 c-4 -3 -7 -28 -7 -55 l0 -48 53 0 c70 0 102 17 102 55 0 21 -7 33 -25 42 -26 13 -112 18 -123 6z"/>
 </g>
<g id="layer106" fill="#db301b" stroke="none">
 <path d="M2125 1459 c-27 -16 -63 -36 -80 -45 -16 -8 -48 -26 -70 -40 -22 -13 -53 -31 -70 -39 -16 -9 -43 -24 -60 -35 -16 -11 -41 -25 -55 -32 -14 -7 -40 -23 -57 -36 l-33 -24 0 -273 0 -273 33 -24 c17 -13 43 -29 57 -36 14 -7 39 -21 55 -32 17 -11 44 -27 60 -35 17 -9 48 -27 70 -40 22 -13 54 -31 70 -39 33 -17 55 -31 97 -58 15 -10 35 -18 44 -18 13 0 159 79 224 121 8 5 29 16 45 24 17 9 73 41 125 73 l95 58 0 279 0 279 -95 58 c-52 32 -102 61 -110 65 -30 13 -225 127 -241 140 -23 19 -48 15 -104 -18z"/>
 <path d="M958 1233 c18 -2 45 -2 60 0 15 2 0 4 -33 4 -33 0 -45 -2 -27 -4z"/>
 <path d="M1158 1233 c7 -3 16 -2 19 1 4 3 -2 6 -13 5 -11 0 -14 -3 -6 -6z"/>
 <path d="M890 935 l0 -285 80 0 80 0 0 285 0 285 -80 0 -80 0 0 -285z"/>
 <path d="M1150 935 l0 -285 227 2 227 3 1 70 0 70 -148 0 -147 0 0 47 0 47 133 0 132 0 3 65 3 66 -136 0 -135 0 0 100 0 100 -80 0 -80 0 0 -285z"/>
 <path d="M3293 1212 l-73 -3 0 -134 c0 -73 -3 -141 -6 -150 -5 -12 -25 11 -74 85 l-67 101 -37 -50 c-20 -28 -36 -53 -36 -56 0 -3 -16 -29 -35 -58 l-35 -52 0 158 0 157 -75 0 -75 0 0 -264 c0 -145 -3 -271 -6 -280 -5 -14 5 -16 79 -16 l84 0 29 43 c35 52 50 76 63 102 5 11 18 32 28 47 l19 27 18 -30 c10 -16 23 -40 30 -52 6 -12 29 -48 49 -80 l38 -58 82 3 82 3 0 278 c0 153 -2 279 -5 280 -3 1 -38 1 -77 -1z"/>
 <path d="M3424 1205 c3 -5 21 -48 41 -95 20 -47 43 -98 50 -115 7 -16 34 -79 59 -140 26 -60 56 -131 68 -157 l21 -48 73 0 73 0 24 53 c14 28 34 78 47 110 12 31 26 60 31 63 5 3 9 12 9 19 0 8 12 40 26 72 34 74 47 106 69 166 10 26 22 50 26 53 26 16 0 24 -74 24 l-82 0 -17 -32 c-9 -18 -19 -41 -22 -50 -5 -15 -19 -18 -96 -18 -50 0 -99 4 -109 9 -10 6 -25 29 -35 53 l-18 43 -84 0 c-53 0 -83 -4 -80 -10z m366 -225 c0 -6 -9 -29 -19 -53 -11 -23 -23 -53 -27 -67 l-7 -25 -10 25 c-16 40 -39 93 -49 113 -8 15 -3 17 52 17 34 0 60 -4 60 -10z"/>
 <path d="M3730 890 c0 -7 3 -10 7 -7 3 4 3 10 0 14 -4 3 -7 0 -7 -7z"/>
 <path d="M4384 1113 c-36 -57 -68 -103 -70 -103 -3 0 -16 12 -29 28 -21 23 -24 37 -25 100 l0 72 -80 0 -80 0 0 -280 0 -280 80 0 80 0 0 110 c0 126 -5 125 83 16 25 -30 60 -71 78 -90 l32 -36 89 0 c89 0 89 0 74 21 -15 23 -84 101 -153 177 l-42 46 86 125 c48 69 98 140 111 156 29 35 35 32 -91 37 l-78 3 -65 -102z"/>
 <path d="M5212 939 l3 -284 170 0 c161 0 173 1 220 25 93 47 129 142 89 238 -17 42 -61 92 -81 92 -19 0 -16 15 10 47 25 30 97 140 97 148 0 3 -39 5 -87 5 l-88 0 -24 -35 c-13 -19 -27 -32 -31 -30 -5 3 -12 0 -16 -6 -5 -8 -3 -9 6 -4 15 9 13 3 -20 -52 -21 -36 -30 -43 -57 -43 l-33 0 0 85 0 85 -64 0 c-35 0 -72 3 -80 6 -15 6 -16 -21 -14 -277z m308 -32 c19 -9 26 -22 28 -49 4 -51 -23 -68 -110 -68 l-68 0 0 65 0 65 63 0 c34 0 73 -6 87 -13z"/>
 <path d="M4664 935 c0 -154 2 -216 3 -137 2 79 2 205 0 280 -1 75 -3 11 -3 -143z"/>
 <path d="M4680 930 l0 -280 228 0 227 0 0 70 0 70 -147 0 -148 0 0 40 0 40 135 0 135 0 0 63 0 62 -111 -3 c-149 -5 -159 -2 -159 49 l0 40 148 -2 147 -1 3 66 3 66 -231 0 -230 0 0 -280z"/>
 <path d="M5194 935 c0 -154 2 -216 3 -137 2 79 2 205 0 280 -1 75 -3 11 -3 -143z"/>
 <path d="M1323 1090 c0 -36 2 -50 4 -32 2 17 2 47 0 65 -2 17 -4 3 -4 -33z"/>
 <path d="M5123 930 c0 -36 2 -50 4 -32 2 17 2 47 0 65 -2 17 -4 3 -4 -33z"/>
 <path d="M1321 838 c2 -30 2 -31 6 -6 l4 27 122 4 122 3 -127 2 -128 2 1 -32z"/>
 <path d="M4918 803 c39 -2 105 -2 145 0 39 1 7 3 -73 3 -80 0 -112 -2 -72 -3z"/>
 <path d="M1272 633 c59 -2 158 -2 220 0 62 1 14 3 -107 3 -121 0 -172 -2 -113 -3z"/>
 <path d="M2818 633 c23 -2 61 -2 85 0 23 2 4 4 -43 4 -47 0 -66 -2 -42 -4z"/>
 <path d="M3248 633 c23 -2 61 -2 85 0 23 2 4 4 -43 4 -47 0 -66 -2 -42 -4z"/>
 <path d="M4143 633 c20 -2 54 -2 75 0 20 2 3 4 -38 4 -41 0 -58 -2 -37 -4z"/>
 <path d="M4493 633 c26 -2 68 -2 95 0 26 2 4 3 -48 3 -52 0 -74 -1 -47 -3z"/>
 <path d="M4798 633 c61 -2 163 -2 225 0 61 1 11 3 -113 3 -124 0 -174 -2 -112 -3z"/>
 <path d="M5298 633 c46 -2 118 -2 160 0 42 1 5 3 -83 3 -88 0 -123 -2 -77 -3z"/>
 <path d="M1855 210 c3 -5 8 -10 11 -10 3 0 2 5 -1 10 -3 6 -8 10 -11 10 -3 0 -2 -4 1 -10z"/>
 <path d="M1925 170 c3 -5 8 -10 11 -10 3 0 2 5 -1 10 -3 6 -8 10 -11 10 -3 0 -2 -4 1 -10z"/>
 <path d="M2752 55 c0 -16 2 -22 5 -12 2 9 2 23 0 30 -3 6 -5 -1 -5 -18z"/>
 </g>
<g id="layer107" fill="#48a354" stroke="none">
 <path d="M2125 1459 c-27 -16 -63 -36 -80 -45 -16 -8 -48 -26 -70 -40 -22 -13 -53 -31 -70 -39 -16 -9 -43 -24 -60 -35 -16 -11 -41 -25 -55 -32 -14 -7 -40 -23 -57 -36 l-33 -24 0 -273 0 -273 33 -24 c17 -13 43 -29 57 -36 14 -7 39 -21 55 -32 17 -11 44 -27 60 -35 17 -9 48 -27 70 -40 22 -13 54 -31 70 -39 33 -17 55 -31 97 -58 15 -10 35 -18 44 -18 13 0 159 79 224 121 8 5 29 16 45 24 17 9 73 41 125 73 l95 58 0 279 0 279 -95 58 c-52 32 -102 61 -110 65 -30 13 -225 127 -241 140 -23 19 -48 15 -104 -18z m395 -380 c0 -27 -3 -48 -8 -45 -7 4 -4 96 4 96 2 0 4 -23 4 -51z m-57 -50 l-33 -21 0 -103 c0 -70 -4 -106 -12 -112 -25 -19 -108 -64 -108 -59 0 3 25 20 55 37 l55 31 0 103 c0 101 1 104 28 124 15 11 32 20 37 21 6 0 -5 -10 -22 -21z m-188 -319 c-3 -5 -12 -10 -18 -10 -7 0 -6 4 3 10 19 12 23 12 15 0z m-28 -67 c-3 -10 -5 -2 -5 17 0 19 2 27 5 18 2 -10 2 -26 0 -35z m23 -43 c0 -4 -9 -10 -21 -13 -15 -4 -18 -2 -10 7 6 7 8 16 4 20 -4 4 0 4 10 0 9 -3 17 -10 17 -14z m-60 -35 c-7 -9 -15 -13 -17 -11 -7 7 7 26 19 26 6 0 6 -6 -2 -15z"/>
 <path d="M958 1233 c18 -2 45 -2 60 0 15 2 0 4 -33 4 -33 0 -45 -2 -27 -4z"/>
 <path d="M1158 1233 c7 -3 16 -2 19 1 4 3 -2 6 -13 5 -11 0 -14 -3 -6 -6z"/>
 <path d="M890 935 l0 -285 80 0 80 0 0 285 0 285 -80 0 -80 0 0 -285z"/>
 <path d="M1150 935 l0 -285 227 2 227 3 1 70 0 70 -148 0 -147 0 0 47 0 47 133 0 132 0 3 65 3 66 -136 0 -135 0 0 100 0 100 -80 0 -80 0 0 -285z"/>
 <path d="M3293 1212 l-73 -3 0 -134 c0 -73 -3 -141 -6 -150 -5 -12 -25 11 -74 85 l-67 101 -37 -50 c-20 -28 -36 -53 -36 -56 0 -3 -16 -29 -35 -58 l-35 -52 0 158 0 157 -75 0 -75 0 0 -264 c0 -145 -3 -271 -6 -280 -5 -14 5 -16 79 -16 l84 0 29 43 c35 52 50 76 63 102 5 11 18 32 28 47 l19 27 18 -30 c10 -16 23 -40 30 -52 6 -12 29 -48 49 -80 l38 -58 82 3 82 3 0 278 c0 153 -2 279 -5 280 -3 1 -38 1 -77 -1z"/>
 <path d="M3424 1205 c3 -5 21 -48 41 -95 20 -47 43 -98 50 -115 7 -16 34 -79 59 -140 26 -60 56 -131 68 -157 l21 -48 73 0 73 0 24 53 c14 28 34 78 47 110 12 31 26 60 31 63 5 3 9 12 9 19 0 8 12 40 26 72 34 74 47 106 69 166 10 26 22 50 26 53 26 16 0 24 -74 24 l-82 0 -17 -32 c-9 -18 -19 -41 -22 -50 -5 -15 -19 -18 -96 -18 -50 0 -99 4 -109 9 -10 6 -25 29 -35 53 l-18 43 -84 0 c-53 0 -83 -4 -80 -10z m366 -225 c0 -6 -9 -29 -19 -53 -11 -23 -23 -53 -27 -67 l-7 -25 -10 25 c-16 40 -39 93 -49 113 -8 15 -3 17 52 17 34 0 60 -4 60 -10z"/>
 <path d="M3730 890 c0 -7 3 -10 7 -7 3 4 3 10 0 14 -4 3 -7 0 -7 -7z"/>
 <path d="M4384 1113 c-36 -57 -68 -103 -70 -103 -3 0 -16 12 -29 28 -21 23 -24 37 -25 100 l0 72 -80 0 -80 0 0 -280 0 -280 80 0 80 0 0 110 c0 126 -5 125 83 16 25 -30 60 -71 78 -90 l32 -36 89 0 c89 0 89 0 74 21 -15 23 -84 101 -153 177 l-42 46 86 125 c48 69 98 140 111 156 29 35 35 32 -91 37 l-78 3 -65 -102z"/>
 <path d="M5212 939 l3 -284 170 0 c161 0 173 1 220 25 93 47 129 142 89 238 -17 42 -61 92 -81 92 -19 0 -16 15 10 47 25 30 97 140 97 148 0 3 -39 5 -87 5 l-88 0 -24 -35 c-13 -19 -27 -32 -31 -30 -5 3 -12 0 -16 -6 -5 -8 -3 -9 6 -4 15 9 13 3 -20 -52 -21 -36 -30 -43 -57 -43 l-33 0 0 85 0 85 -64 0 c-35 0 -72 3 -80 6 -15 6 -16 -21 -14 -277z m308 -32 c19 -9 26 -22 28 -49 4 -51 -23 -68 -110 -68 l-68 0 0 65 0 65 63 0 c34 0 73 -6 87 -13z"/>
 <path d="M4664 935 c0 -154 2 -216 3 -137 2 79 2 205 0 280 -1 75 -3 11 -3 -143z"/>
 <path d="M4680 930 l0 -280 228 0 227 0 0 70 0 70 -147 0 -148 0 0 40 0 40 135 0 135 0 0 63 0 62 -111 -3 c-149 -5 -159 -2 -159 49 l0 40 148 -2 147 -1 3 66 3 66 -231 0 -230 0 0 -280z"/>
 <path d="M5194 935 c0 -154 2 -216 3 -137 2 79 2 205 0 280 -1 75 -3 11 -3 -143z"/>
 <path d="M1323 1090 c0 -36 2 -50 4 -32 2 17 2 47 0 65 -2 17 -4 3 -4 -33z"/>
 <path d="M5123 930 c0 -36 2 -50 4 -32 2 17 2 47 0 65 -2 17 -4 3 -4 -33z"/>
 <path d="M1321 838 c2 -30 2 -31 6 -6 l4 27 122 4 122 3 -127 2 -128 2 1 -32z"/>
 <path d="M4918 803 c39 -2 105 -2 145 0 39 1 7 3 -73 3 -80 0 -112 -2 -72 -3z"/>
 <path d="M1272 633 c59 -2 158 -2 220 0 62 1 14 3 -107 3 -121 0 -172 -2 -113 -3z"/>
 <path d="M2818 633 c23 -2 61 -2 85 0 23 2 4 4 -43 4 -47 0 -66 -2 -42 -4z"/>
 <path d="M3248 633 c23 -2 61 -2 85 0 23 2 4 4 -43 4 -47 0 -66 -2 -42 -4z"/>
 <path d="M4143 633 c20 -2 54 -2 75 0 20 2 3 4 -38 4 -41 0 -58 -2 -37 -4z"/>
 <path d="M4493 633 c26 -2 68 -2 95 0 26 2 4 3 -48 3 -52 0 -74 -1 -47 -3z"/>
 <path d="M4798 633 c61 -2 163 -2 225 0 61 1 11 3 -113 3 -124 0 -174 -2 -112 -3z"/>
 <path d="M5298 633 c46 -2 118 -2 160 0 42 1 5 3 -83 3 -88 0 -123 -2 -77 -3z"/>
 <path d="M1855 210 c3 -5 8 -10 11 -10 3 0 2 5 -1 10 -3 6 -8 10 -11 10 -3 0 -2 -4 1 -10z"/>
 <path d="M1925 170 c3 -5 8 -10 11 -10 3 0 2 5 -1 10 -3 6 -8 10 -11 10 -3 0 -2 -4 1 -10z"/>
 <path d="M2752 55 c0 -16 2 -22 5 -12 2 9 2 23 0 30 -3 6 -5 -1 -5 -18z"/>
 </g>
<g id="layer108" fill="#db4d3a" stroke="none">
 <path d="M1964 1367 c-115 -67 -222 -130 -237 -140 l-27 -17 0 -275 0 -275 38 -24 c78 -51 441 -256 452 -256 10 0 217 117 415 235 l70 41 3 277 2 277 -37 23 c-109 68 -444 257 -455 257 -7 -1 -108 -56 -224 -123z m556 -288 c0 -27 -3 -48 -8 -45 -7 4 -4 96 4 96 2 0 4 -23 4 -51z m-57 -50 l-33 -21 0 -103 c0 -70 -4 -106 -12 -112 -25 -19 -108 -64 -108 -59 0 3 25 20 55 37 l55 31 0 103 c0 101 1 104 28 124 15 11 32 20 37 21 6 0 -5 -10 -22 -21z m-188 -319 c-3 -5 -12 -10 -18 -10 -7 0 -6 4 3 10 19 12 23 12 15 0z m-28 -67 c-3 -10 -5 -2 -5 17 0 19 2 27 5 18 2 -10 2 -26 0 -35z m23 -43 c0 -4 -9 -10 -21 -13 -15 -4 -18 -2 -10 7 6 7 8 16 4 20 -4 4 0 4 10 0 9 -3 17 -10 17 -14z m-60 -35 c-7 -9 -15 -13 -17 -11 -7 7 7 26 19 26 6 0 6 -6 -2 -15z"/>
 <path d="M890 935 l0 -285 80 0 80 0 0 285 0 285 -80 0 -80 0 0 -285z"/>
 <path d="M1150 935 l0 -285 225 0 225 0 0 70 0 70 -145 0 -145 0 0 49 0 50 130 -2 130 -2 0 68 0 67 -130 0 -130 0 0 100 0 100 -80 0 -80 0 0 -285z"/>
 <path d="M2780 930 l0 -280 79 0 80 0 68 110 67 109 41 -64 c22 -35 52 -85 67 -110 l28 -45 80 0 80 0 0 280 0 280 -75 0 -74 0 -3 -157 -3 -156 -72 108 -71 107 -71 -108 -71 -109 0 158 0 157 -75 0 -75 0 0 -280z"/>
 <path d="M3430 1201 c0 -5 11 -33 24 -62 13 -30 56 -130 95 -224 40 -93 81 -192 93 -218 l22 -48 74 3 75 3 64 150 c35 83 70 166 78 185 7 19 31 77 53 128 l40 92 -82 0 -83 0 -21 -50 -21 -50 -105 0 -105 0 -22 50 -21 50 -79 0 c-44 0 -79 -4 -79 -9z m360 -218 c0 -12 -52 -145 -55 -141 -1 2 -16 36 -33 76 l-30 72 59 0 c32 0 59 -3 59 -7z"/>
 <path d="M4100 930 l0 -280 80 0 79 0 3 111 3 111 93 -111 94 -111 89 0 c49 0 89 2 89 3 0 2 -47 57 -104 122 l-104 119 95 140 c53 78 103 149 111 159 14 16 10 17 -80 17 l-96 0 -62 -92 c-35 -51 -67 -97 -71 -102 -4 -5 -19 4 -33 20 -22 25 -25 38 -26 102 l0 72 -80 0 -80 0 0 -280z"/>
 <path d="M4680 930 l0 -280 225 0 225 0 0 70 0 70 -145 0 -145 0 0 40 0 40 135 0 135 0 0 60 0 60 -135 0 -135 0 0 45 0 45 150 0 150 0 0 65 0 65 -230 0 -230 0 0 -280z"/>
 <path d="M5212 933 l3 -278 139 -3 c216 -4 289 19 334 108 27 54 28 111 3 166 -17 37 -55 77 -84 87 -7 2 12 39 51 95 34 49 62 93 62 96 0 3 -39 6 -87 6 l-88 0 -55 -85 c-50 -77 -58 -85 -87 -85 l-33 0 0 85 0 85 -80 0 -80 0 2 -277z m316 -29 c15 -10 22 -25 22 -49 0 -49 -28 -65 -112 -65 l-68 0 0 65 0 65 68 0 c45 0 75 -5 90 -16z"/>
 </g>
<g id="layer109" fill="#e35136" stroke="none">
 <path d="M1964 1367 c-115 -67 -222 -130 -237 -140 l-27 -17 0 -275 0 -275 38 -24 c78 -51 441 -256 452 -256 10 0 217 117 415 235 l70 41 3 277 2 277 -37 23 c-109 68 -444 257 -455 257 -7 -1 -108 -56 -224 -123z m556 -287 c0 -38 -3 -48 -14 -44 -8 3 -28 -2 -45 -11 l-31 -16 0 -107 0 -107 -90 -50 c-88 -49 -90 -51 -90 -87 0 -20 5 -40 10 -43 17 -11 11 -19 -30 -43 l-40 -23 0 195 c0 166 2 195 16 200 10 4 13 2 8 -7 -4 -6 5 1 20 16 16 17 33 27 42 23 8 -3 13 -2 10 3 -6 9 88 63 98 56 3 -3 4 -2 1 2 -3 3 9 15 25 25 35 21 44 23 34 6 -4 -7 -3 -8 5 -4 6 4 9 11 6 16 -2 4 9 13 25 20 17 7 30 16 30 21 0 5 2 9 5 9 3 0 5 -22 5 -50z"/>
 <path d="M890 935 l0 -285 80 0 80 0 0 285 0 285 -80 0 -80 0 0 -285z"/>
 <path d="M1150 935 l0 -285 225 0 225 0 0 70 0 70 -145 0 -145 0 0 49 0 50 130 -2 130 -2 0 68 0 67 -130 0 -130 0 0 100 0 100 -80 0 -80 0 0 -285z"/>
 <path d="M2780 930 l0 -280 79 0 80 0 68 110 67 109 41 -64 c22 -35 52 -85 67 -110 l28 -45 80 0 80 0 0 280 0 280 -75 0 -74 0 -3 -157 -3 -156 -72 108 -71 107 -71 -108 -71 -109 0 158 0 157 -75 0 -75 0 0 -280z"/>
 <path d="M3430 1201 c0 -5 11 -33 24 -62 13 -30 56 -130 95 -224 40 -93 81 -192 93 -218 l22 -48 74 3 75 3 64 150 c35 83 70 166 78 185 7 19 31 77 53 128 l40 92 -82 0 -83 0 -21 -50 -21 -50 -105 0 -105 0 -22 50 -21 50 -79 0 c-44 0 -79 -4 -79 -9z m360 -218 c0 -12 -52 -145 -55 -141 -1 2 -16 36 -33 76 l-30 72 59 0 c32 0 59 -3 59 -7z"/>
 <path d="M4100 930 l0 -280 80 0 79 0 3 111 3 111 93 -111 94 -111 89 0 c49 0 89 2 89 3 0 2 -47 57 -104 122 l-104 119 95 140 c53 78 103 149 111 159 14 16 10 17 -80 17 l-96 0 -62 -92 c-35 -51 -67 -97 -71 -102 -4 -5 -19 4 -33 20 -22 25 -25 38 -26 102 l0 72 -80 0 -80 0 0 -280z"/>
 <path d="M4680 930 l0 -280 225 0 225 0 0 70 0 70 -145 0 -145 0 0 40 0 40 135 0 135 0 0 60 0 60 -135 0 -135 0 0 45 0 45 150 0 150 0 0 65 0 65 -230 0 -230 0 0 -280z"/>
 <path d="M5212 933 l3 -278 139 -3 c216 -4 289 19 334 108 27 54 28 111 3 166 -17 37 -55 77 -84 87 -7 2 12 39 51 95 34 49 62 93 62 96 0 3 -39 6 -87 6 l-88 0 -55 -85 c-50 -77 -58 -85 -87 -85 l-33 0 0 85 0 85 -80 0 -80 0 2 -277z m316 -29 c15 -10 22 -25 22 -49 0 -49 -28 -65 -112 -65 l-68 0 0 65 0 65 68 0 c45 0 75 -5 90 -16z"/>
 </g>
<g id="layer110" fill="#e36f4f" stroke="none">
 <path d="M1964 1367 c-115 -67 -222 -130 -237 -140 l-27 -17 0 -275 0 -275 38 -24 c78 -51 441 -256 452 -256 10 0 217 117 415 235 l70 41 3 277 2 277 -37 23 c-109 68 -444 257 -455 257 -7 -1 -108 -56 -224 -123z m252 -173 c18 -14 18 -14 -6 -3 -31 14 -36 19 -24 19 6 0 19 -7 30 -16z m-46 2 c0 -3 -5 -8 -12 -12 -7 -4 -8 -3 -4 4 7 12 16 16 16 8z m-30 -21 c0 -2 -10 -9 -22 -15 -22 -11 -22 -10 -4 4 21 17 26 19 26 11z m140 -21 c0 -2 -9 0 -20 6 -11 6 -20 13 -20 16 0 2 9 0 20 -6 11 -6 20 -13 20 -16z m-343 -1 c-4 -3 -7 0 -7 7 0 7 3 10 7 7 3 -4 3 -10 0 -14z m510 0 c-4 -3 -7 0 -7 7 0 7 3 10 7 7 3 -4 3 -10 0 -14z m-547 -13 c-14 -11 -29 -20 -35 -20 -5 0 4 9 20 20 38 25 48 25 15 0z m575 10 c3 -5 4 -10 1 -10 -3 0 -8 5 -11 10 -3 6 -4 10 -1 10 3 0 8 -4 11 -10z m-405 -15 c0 -2 -10 -9 -22 -15 -22 -11 -22 -10 -4 4 21 17 26 19 26 11z m280 -21 c0 -2 -9 0 -20 6 -11 6 -20 13 -20 16 0 2 9 0 20 -6 11 -6 20 -13 20 -16z m80 22 c0 -3 -5 -8 -12 -12 -7 -4 -8 -3 -4 4 7 12 16 16 16 8z m-430 -32 c0 -2 -9 0 -20 6 -11 6 -20 13 -20 16 0 2 9 0 20 -6 11 -6 20 -13 20 -16z m520 -24 c0 -38 -3 -48 -14 -44 -8 3 -28 -2 -45 -11 l-31 -16 0 -107 0 -107 -90 -50 c-88 -49 -90 -51 -90 -87 0 -20 5 -40 10 -43 17 -11 11 -19 -30 -43 l-40 -23 0 193 0 193 158 90 c86 49 159 93 160 97 8 18 12 5 12 -42z m-120 36 c0 -3 -5 -8 -12 -12 -7 -4 -8 -3 -4 4 7 12 16 16 16 8z"/>
 <path d="M890 935 l0 -285 80 0 80 0 0 285 0 285 -80 0 -80 0 0 -285z"/>
 <path d="M1150 935 l0 -285 225 0 225 0 0 70 0 70 -145 0 -145 0 0 49 0 50 130 -2 130 -2 0 68 0 67 -130 0 -130 0 0 100 0 100 -80 0 -80 0 0 -285z"/>
 <path d="M2780 930 l0 -280 79 0 80 0 68 110 67 109 41 -64 c22 -35 52 -85 67 -110 l28 -45 80 0 80 0 0 280 0 280 -75 0 -74 0 -3 -157 -3 -156 -72 108 -71 107 -71 -108 -71 -109 0 158 0 157 -75 0 -75 0 0 -280z"/>
 <path d="M3430 1201 c0 -5 11 -33 24 -62 13 -30 56 -130 95 -224 40 -93 81 -192 93 -218 l22 -48 74 3 75 3 64 150 c35 83 70 166 78 185 7 19 31 77 53 128 l40 92 -82 0 -83 0 -21 -50 -21 -50 -105 0 -105 0 -22 50 -21 50 -79 0 c-44 0 -79 -4 -79 -9z m360 -218 c0 -12 -52 -145 -55 -141 -1 2 -16 36 -33 76 l-30 72 59 0 c32 0 59 -3 59 -7z"/>
 <path d="M4100 930 l0 -280 80 0 79 0 3 111 3 111 93 -111 94 -111 89 0 c49 0 89 2 89 3 0 2 -47 57 -104 122 l-104 119 95 140 c53 78 103 149 111 159 14 16 10 17 -80 17 l-96 0 -62 -92 c-35 -51 -67 -97 -71 -102 -4 -5 -19 4 -33 20 -22 25 -25 38 -26 102 l0 72 -80 0 -80 0 0 -280z"/>
 <path d="M4680 930 l0 -280 225 0 225 0 0 70 0 70 -145 0 -145 0 0 40 0 40 135 0 135 0 0 60 0 60 -135 0 -135 0 0 45 0 45 150 0 150 0 0 65 0 65 -230 0 -230 0 0 -280z"/>
 <path d="M5212 933 l3 -278 139 -3 c216 -4 289 19 334 108 27 54 28 111 3 166 -17 37 -55 77 -84 87 -7 2 12 39 51 95 34 49 62 93 62 96 0 3 -39 6 -87 6 l-88 0 -55 -85 c-50 -77 -58 -85 -87 -85 l-33 0 0 85 0 85 -80 0 -80 0 2 -277z m316 -29 c15 -10 22 -25 22 -49 0 -49 -28 -65 -112 -65 l-68 0 0 65 0 65 68 0 c45 0 75 -5 90 -16z"/>
 </g>
<g id="layer111" fill="#e98f6f" stroke="none">
 <path d="M1964 1367 c-115 -67 -222 -130 -237 -140 l-27 -17 0 -275 0 -275 38 -24 c78 -51 441 -256 452 -256 10 0 217 117 415 235 l70 41 3 277 2 277 -37 23 c-109 68 -444 257 -455 257 -7 -1 -108 -56 -224 -123z m317 -208 l89 -51 33 20 c17 10 31 24 30 31 -4 15 2 14 47 -9 38 -20 40 -22 40 -70 0 -39 -3 -48 -14 -44 -8 3 -29 -2 -45 -12 l-31 -18 0 -106 0 -105 -88 -51 c-79 -45 -87 -53 -90 -83 -2 -18 2 -39 9 -47 6 -8 10 -16 8 -18 -2 -1 -21 -13 -41 -25 -35 -21 -38 -21 -63 -5 -14 9 -25 19 -25 21 0 3 11 -2 25 -11 l25 -16 0 188 0 188 -137 79 c-76 43 -151 87 -166 96 l-28 17 34 21 c40 24 47 26 47 9 0 -19 57 -48 77 -41 10 4 51 26 93 50 41 24 77 43 79 43 2 0 44 -23 92 -51z m-414 -111 c-2 -13 -4 -3 -4 22 0 25 2 35 4 23 2 -13 2 -33 0 -45z m58 -18 c3 -5 4 -10 1 -10 -3 0 -8 5 -11 10 -3 6 -4 10 -1 10 3 0 8 -4 11 -10z m35 -124 c0 -87 3 -106 18 -117 15 -13 15 -13 -3 -3 -18 10 -21 25 -25 122 -3 60 -2 108 3 105 4 -2 7 -51 7 -107z m110 -172 c0 -2 -9 0 -20 6 -11 6 -20 13 -20 16 0 2 9 0 20 -6 11 -6 20 -13 20 -16z m55 -32 c-3 -3 -11 0 -18 7 -9 10 -8 11 6 5 10 -3 15 -9 12 -12z m0 -102 c3 -6 -1 -7 -9 -4 -18 7 -21 14 -7 14 6 0 13 -4 16 -10z"/>
 <path d="M890 935 l0 -285 80 0 80 0 0 285 0 285 -80 0 -80 0 0 -285z"/>
 <path d="M1150 935 l0 -285 225 0 225 0 0 70 0 70 -145 0 -145 0 0 49 0 50 130 -2 130 -2 0 68 0 67 -130 0 -130 0 0 100 0 100 -80 0 -80 0 0 -285z"/>
 <path d="M2780 930 l0 -280 79 0 80 0 68 110 67 109 41 -64 c22 -35 52 -85 67 -110 l28 -45 80 0 80 0 0 280 0 280 -75 0 -74 0 -3 -157 -3 -156 -72 108 -71 107 -71 -108 -71 -109 0 158 0 157 -75 0 -75 0 0 -280z"/>
 <path d="M3430 1201 c0 -5 11 -33 24 -62 13 -30 56 -130 95 -224 40 -93 81 -192 93 -218 l22 -48 74 3 75 3 64 150 c35 83 70 166 78 185 7 19 31 77 53 128 l40 92 -82 0 -83 0 -21 -50 -21 -50 -105 0 -105 0 -22 50 -21 50 -79 0 c-44 0 -79 -4 -79 -9z m360 -218 c0 -12 -52 -145 -55 -141 -1 2 -16 36 -33 76 l-30 72 59 0 c32 0 59 -3 59 -7z"/>
 <path d="M4100 930 l0 -280 80 0 79 0 3 111 3 111 93 -111 94 -111 89 0 c49 0 89 2 89 3 0 2 -47 57 -104 122 l-104 119 95 140 c53 78 103 149 111 159 14 16 10 17 -80 17 l-96 0 -62 -92 c-35 -51 -67 -97 -71 -102 -4 -5 -19 4 -33 20 -22 25 -25 38 -26 102 l0 72 -80 0 -80 0 0 -280z"/>
 <path d="M4680 930 l0 -280 225 0 225 0 0 70 0 70 -145 0 -145 0 0 40 0 40 135 0 135 0 0 60 0 60 -135 0 -135 0 0 45 0 45 150 0 150 0 0 65 0 65 -230 0 -230 0 0 -280z"/>
 <path d="M5212 933 l3 -278 139 -3 c216 -4 289 19 334 108 27 54 28 111 3 166 -17 37 -55 77 -84 87 -7 2 12 39 51 95 34 49 62 93 62 96 0 3 -39 6 -87 6 l-88 0 -55 -85 c-50 -77 -58 -85 -87 -85 l-33 0 0 85 0 85 -80 0 -80 0 2 -277z m316 -29 c15 -10 22 -25 22 -49 0 -49 -28 -65 -112 -65 l-68 0 0 65 0 65 68 0 c45 0 75 -5 90 -16z"/>
 </g>
<g id="layer112" fill="#d2d3d4" stroke="none">
 <path d="M1964 1367 c-115 -67 -222 -130 -237 -140 l-27 -17 0 -275 0 -275 38 -24 c78 -51 441 -256 452 -256 10 0 217 117 415 235 l70 41 3 277 2 277 -37 23 c-109 68 -444 257 -455 257 -7 -1 -108 -56 -224 -123z m344 -221 c61 -35 64 -35 93 -21 17 9 29 24 29 35 0 26 3 25 50 -6 38 -25 40 -29 40 -76 0 -40 -3 -49 -15 -44 -8 3 -28 -2 -45 -12 l-30 -17 0 -105 0 -106 -90 -52 c-85 -50 -90 -55 -90 -87 0 -19 5 -37 10 -40 17 -11 11 -19 -30 -43 l-40 -23 -46 27 c-37 22 -43 29 -30 36 10 5 16 22 16 43 0 32 -5 36 -90 85 l-90 52 0 106 0 107 -34 19 c-19 10 -39 15 -45 12 -7 -5 -11 9 -11 42 0 46 2 51 40 76 47 31 50 32 50 6 0 -11 12 -26 28 -34 27 -14 32 -13 108 30 43 25 83 49 88 54 6 6 22 2 40 -9 17 -10 59 -35 94 -55z"/>
 <path d="M890 935 l0 -285 80 0 80 0 0 285 0 285 -80 0 -80 0 0 -285z"/>
 <path d="M1150 935 l0 -285 225 0 225 0 0 70 0 70 -145 0 -145 0 0 49 0 50 130 -2 130 -2 0 68 0 67 -130 0 -130 0 0 100 0 100 -80 0 -80 0 0 -285z"/>
 <path d="M2780 930 l0 -280 79 0 80 0 68 110 67 109 41 -64 c22 -35 52 -85 67 -110 l28 -45 80 0 80 0 0 280 0 280 -75 0 -74 0 -3 -157 -3 -156 -72 108 -71 107 -71 -108 -71 -109 0 158 0 157 -75 0 -75 0 0 -280z"/>
 <path d="M3430 1201 c0 -5 11 -33 24 -62 13 -30 56 -130 95 -224 40 -93 81 -192 93 -218 l22 -48 74 3 75 3 64 150 c35 83 70 166 78 185 7 19 31 77 53 128 l40 92 -82 0 -83 0 -21 -50 -21 -50 -105 0 -105 0 -22 50 -21 50 -79 0 c-44 0 -79 -4 -79 -9z m360 -218 c0 -12 -52 -145 -55 -141 -1 2 -16 36 -33 76 l-30 72 59 0 c32 0 59 -3 59 -7z"/>
 <path d="M4100 930 l0 -280 80 0 79 0 3 111 3 111 93 -111 94 -111 89 0 c49 0 89 2 89 3 0 2 -47 57 -104 122 l-104 119 95 140 c53 78 103 149 111 159 14 16 10 17 -80 17 l-96 0 -62 -92 c-35 -51 -67 -97 -71 -102 -4 -5 -19 4 -33 20 -22 25 -25 38 -26 102 l0 72 -80 0 -80 0 0 -280z"/>
 <path d="M4680 930 l0 -280 225 0 225 0 0 70 0 70 -145 0 -145 0 0 40 0 40 135 0 135 0 0 60 0 60 -135 0 -135 0 0 45 0 45 150 0 150 0 0 65 0 65 -230 0 -230 0 0 -280z"/>
 <path d="M5212 933 l3 -278 139 -3 c216 -4 289 19 334 108 27 54 28 111 3 166 -17 37 -55 77 -84 87 -7 2 12 39 51 95 34 49 62 93 62 96 0 3 -39 6 -87 6 l-88 0 -55 -85 c-50 -77 -58 -85 -87 -85 l-33 0 0 85 0 85 -80 0 -80 0 2 -277z m316 -29 c15 -10 22 -25 22 -49 0 -49 -28 -65 -112 -65 l-68 0 0 65 0 65 68 0 c45 0 75 -5 90 -16z"/>
 </g>
<g id="layer113" fill="#ead9dc" stroke="none">
 <path d="M1964 1367 c-115 -67 -222 -130 -237 -140 l-27 -18 2 -275 3 -276 125 -72 c69 -40 178 -102 242 -139 l117 -68 228 131 c125 73 236 139 246 147 15 15 17 42 17 284 l0 269 -37 23 c-109 68 -444 257 -455 257 -7 -1 -108 -56 -224 -123z m337 -146 c60 -35 109 -67 109 -72 0 -6 5 -7 10 -4 6 3 10 28 10 56 0 27 3 49 8 48 4 0 39 -19 77 -43 l70 -42 1 -89 0 -90 -3 83 c-2 45 -7 82 -11 82 -4 0 -18 -7 -30 -16 -17 -12 -22 -25 -22 -61 0 -36 -3 -44 -15 -39 -8 3 -28 -2 -45 -12 l-31 -17 2 -104 2 -103 -49 -31 c-27 -16 -67 -40 -89 -52 -34 -20 -40 -28 -43 -60 l-3 -37 28 19 c15 11 70 43 121 72 l92 53 85 -48 c47 -26 82 -51 78 -55 -5 -4 -111 -66 -236 -139 l-228 -131 -107 62 c-59 34 -161 93 -226 130 -66 38 -124 73 -129 78 -8 8 98 77 144 94 10 3 58 -18 120 -55 57 -33 112 -64 122 -69 15 -8 17 -5 17 25 0 33 -4 37 -90 86 l-90 52 0 106 0 107 -34 19 c-19 10 -40 15 -46 11 -10 -6 -12 7 -8 54 2 33 0 61 -4 61 -5 0 -6 -4 -3 -10 3 -5 2 -10 -3 -10 -13 0 -58 37 -52 43 10 9 137 77 143 77 4 0 7 -22 7 -49 0 -28 5 -53 12 -57 6 -4 8 -3 5 3 -3 5 43 38 103 72 95 54 110 66 111 89 l2 27 4 -26 c3 -22 24 -38 114 -88z m254 -211 c3 -5 4 -10 1 -10 -3 0 -8 5 -11 10 -3 6 -4 10 -1 10 3 0 8 -4 11 -10z m-725 -4 c0 -3 -5 -8 -12 -12 -7 -4 -8 -3 -4 4 7 12 16 16 16 8z"/>
 <path d="M2164 1214 c-18 -14 -18 -15 4 -4 16 8 28 8 45 0 21 -11 21 -10 3 4 -11 9 -23 16 -26 16 -3 0 -15 -7 -26 -16z"/>
 <path d="M2075 1165 c-33 -20 -68 -33 -79 -31 -15 4 -16 2 -7 -7 9 -9 27 -4 77 23 36 19 68 38 71 42 7 12 3 10 -62 -27z"/>
 <path d="M2240 1196 c0 -3 9 -10 20 -16 11 -6 20 -8 20 -6 0 3 -9 10 -20 16 -11 6 -20 8 -20 6z"/>
 <path d="M1914 1174 c-18 -14 -18 -15 4 -4 12 6 22 13 22 15 0 8 -5 6 -26 -11z"/>
 <path d="M2440 1186 c0 -3 9 -10 20 -16 11 -6 20 -8 20 -6 0 3 -9 10 -20 16 -11 6 -20 8 -20 6z"/>
 <path d="M2290 1166 c0 -3 14 -12 30 -21 17 -9 30 -13 30 -11 0 3 -13 12 -30 21 -16 9 -30 13 -30 11z"/>
 <path d="M2497 1149 c7 -7 15 -10 18 -7 3 3 -2 9 -12 12 -14 6 -15 5 -6 -5z"/>
 <path d="M2375 1130 c-16 -7 -17 -9 -3 -9 9 -1 20 4 23 9 7 11 7 11 -20 0z"/>
 <path d="M2070 582 l-23 -18 47 -28 c25 -15 45 -30 42 -34 -2 -4 12 -8 30 -9 24 -1 55 10 100 36 l65 38 -25 16 c-24 16 -27 16 -71 -8 l-45 -26 -43 26 c-52 30 -49 30 -77 7z m127 -59 c-4 -3 -7 0 -7 7 0 7 3 10 7 7 3 -4 3 -10 0 -14z"/>
 <path d="M890 935 l0 -285 80 0 80 0 0 285 0 285 -80 0 -80 0 0 -285z"/>
 <path d="M1150 935 l0 -285 225 0 225 0 0 70 0 70 -145 0 -145 0 0 49 0 50 130 -2 130 -2 0 68 0 67 -130 0 -130 0 0 100 0 100 -80 0 -80 0 0 -285z"/>
 <path d="M2780 930 l0 -280 79 0 80 0 68 110 67 109 41 -64 c22 -35 52 -85 67 -110 l28 -45 80 0 80 0 0 280 0 280 -75 0 -74 0 -3 -157 -3 -156 -72 108 -71 107 -71 -108 -71 -109 0 158 0 157 -75 0 -75 0 0 -280z"/>
 <path d="M3430 1201 c0 -5 11 -33 24 -62 13 -30 56 -130 95 -224 40 -93 81 -192 93 -218 l22 -48 74 3 75 3 64 150 c35 83 70 166 78 185 7 19 31 77 53 128 l40 92 -82 0 -83 0 -21 -50 -21 -50 -105 0 -105 0 -22 50 -21 50 -79 0 c-44 0 -79 -4 -79 -9z m360 -218 c0 -12 -52 -145 -55 -141 -1 2 -16 36 -33 76 l-30 72 59 0 c32 0 59 -3 59 -7z"/>
 <path d="M4100 930 l0 -280 80 0 79 0 3 111 3 111 93 -111 94 -111 89 0 c49 0 89 2 89 3 0 2 -47 57 -104 122 l-104 119 95 140 c53 78 103 149 111 159 14 16 10 17 -80 17 l-96 0 -62 -92 c-35 -51 -67 -97 -71 -102 -4 -5 -19 4 -33 20 -22 25 -25 38 -26 102 l0 72 -80 0 -80 0 0 -280z"/>
 <path d="M4680 930 l0 -280 225 0 225 0 0 70 0 70 -145 0 -145 0 0 40 0 40 135 0 135 0 0 60 0 60 -135 0 -135 0 0 45 0 45 150 0 150 0 0 65 0 65 -230 0 -230 0 0 -280z"/>
 <path d="M5212 933 l3 -278 139 -3 c216 -4 289 19 334 108 27 54 28 111 3 166 -17 37 -55 77 -84 87 -7 2 12 39 51 95 34 49 62 93 62 96 0 3 -39 6 -87 6 l-88 0 -55 -85 c-50 -77 -58 -85 -87 -85 l-33 0 0 85 0 85 -80 0 -80 0 2 -277z m316 -29 c15 -10 22 -25 22 -49 0 -49 -28 -65 -112 -65 l-68 0 0 65 0 65 68 0 c45 0 75 -5 90 -16z"/>
 </g>
<g id="layer114" fill="#dae7e7" stroke="none">
 <path d="M1964 1367 c-115 -67 -222 -130 -237 -140 l-27 -17 0 -269 c0 -147 3 -270 6 -273 3 -3 43 17 89 45 l84 51 4 131 3 130 2 -131 2 -132 103 -60 c135 -81 137 -81 137 -45 0 26 -10 34 -95 83 l-95 55 0 106 c0 101 -1 106 -24 118 -13 7 -32 10 -43 7 -18 -6 -19 -2 -16 46 4 51 3 54 -26 70 -17 9 -31 21 -31 25 0 8 131 83 144 83 3 0 6 -22 6 -49 0 -28 5 -53 10 -56 6 -4 9 -1 8 5 -3 12 71 61 165 110 36 19 47 31 48 50 l1 25 7 -25 c5 -18 35 -41 116 -88 61 -34 109 -67 107 -73 -1 -6 2 -8 8 -4 5 3 10 28 10 56 0 27 3 49 8 48 4 0 39 -19 77 -43 l70 -42 3 -87 c3 -95 -2 -103 -48 -67 -29 23 -58 25 -82 6 -15 -11 -18 -30 -18 -119 l0 -105 -42 -22 c-90 -46 -123 -68 -121 -78 2 -6 -4 -9 -12 -6 -12 5 -15 -2 -15 -31 0 -32 2 -36 15 -25 8 7 12 17 8 23 -3 6 -1 7 6 3 6 -4 55 18 111 51 l99 58 3 130 2 130 6 -135 5 -134 80 -47 c44 -26 83 -45 87 -43 5 3 8 126 8 274 l0 270 -37 23 c-109 68 -444 257 -455 257 -7 -1 -108 -56 -224 -123z m-134 -361 c0 -3 -5 -8 -12 -12 -7 -4 -8 -3 -4 4 7 12 16 16 16 8z m627 -158 c-2 -29 -3 -6 -3 52 0 58 1 81 3 53 2 -29 2 -77 0 -105z m-87 -112 c0 -3 -5 -8 -12 -12 -7 -4 -8 -3 -4 4 7 12 16 16 16 8z"/>
 <path d="M2164 1214 c-18 -14 -18 -15 4 -4 16 8 28 8 45 0 21 -11 21 -10 3 4 -11 9 -23 16 -26 16 -3 0 -15 -7 -26 -16z"/>
 <path d="M890 935 l0 -285 80 0 80 0 0 285 0 285 -80 0 -80 0 0 -285z"/>
 <path d="M1150 935 l0 -285 225 0 225 0 0 70 0 70 -145 0 -145 0 0 49 0 50 130 -2 130 -2 0 68 0 67 -130 0 -130 0 0 100 0 100 -80 0 -80 0 0 -285z"/>
 <path d="M2780 930 l0 -280 79 0 80 0 68 110 67 109 41 -64 c22 -35 52 -85 67 -110 l28 -45 80 0 80 0 0 280 0 280 -75 0 -74 0 -3 -157 -3 -156 -72 108 -71 107 -71 -108 -71 -109 0 158 0 157 -75 0 -75 0 0 -280z"/>
 <path d="M3430 1201 c0 -5 11 -33 24 -62 13 -30 56 -130 95 -224 40 -93 81 -192 93 -218 l22 -48 74 3 75 3 64 150 c35 83 70 166 78 185 7 19 31 77 53 128 l40 92 -82 0 -83 0 -21 -50 -21 -50 -105 0 -105 0 -22 50 -21 50 -79 0 c-44 0 -79 -4 -79 -9z m360 -218 c0 -12 -52 -145 -55 -141 -1 2 -16 36 -33 76 l-30 72 59 0 c32 0 59 -3 59 -7z"/>
 <path d="M4100 930 l0 -280 80 0 79 0 3 111 3 111 93 -111 94 -111 89 0 c49 0 89 2 89 3 0 2 -47 57 -104 122 l-104 119 95 140 c53 78 103 149 111 159 14 16 10 17 -80 17 l-96 0 -62 -92 c-35 -51 -67 -97 -71 -102 -4 -5 -19 4 -33 20 -22 25 -25 38 -26 102 l0 72 -80 0 -80 0 0 -280z"/>
 <path d="M4680 930 l0 -280 225 0 225 0 0 70 0 70 -145 0 -145 0 0 40 0 40 135 0 135 0 0 60 0 60 -135 0 -135 0 0 45 0 45 150 0 150 0 0 65 0 65 -230 0 -230 0 0 -280z"/>
 <path d="M5212 933 l3 -278 139 -3 c216 -4 289 19 334 108 27 54 28 111 3 166 -17 37 -55 77 -84 87 -7 2 12 39 51 95 34 49 62 93 62 96 0 3 -39 6 -87 6 l-88 0 -55 -85 c-50 -77 -58 -85 -87 -85 l-33 0 0 85 0 85 -80 0 -80 0 2 -277z m316 -29 c15 -10 22 -25 22 -49 0 -49 -28 -65 -112 -65 l-68 0 0 65 0 65 68 0 c45 0 75 -5 90 -16z"/>
 <path d="M2075 1165 c-33 -20 -68 -33 -79 -31 -15 4 -16 2 -7 -7 9 -9 27 -4 77 23 36 19 68 38 71 42 7 12 3 10 -62 -27z"/>
 <path d="M2240 1196 c0 -3 9 -10 20 -16 11 -6 20 -8 20 -6 0 3 -9 10 -20 16 -11 6 -20 8 -20 6z"/>
 <path d="M1914 1174 c-18 -14 -18 -15 4 -4 12 6 22 13 22 15 0 8 -5 6 -26 -11z"/>
 <path d="M2440 1186 c0 -3 9 -10 20 -16 11 -6 20 -8 20 -6 0 3 -9 10 -20 16 -11 6 -20 8 -20 6z"/>
 <path d="M2290 1166 c0 -3 14 -12 30 -21 17 -9 30 -13 30 -11 0 3 -13 12 -30 21 -16 9 -30 13 -30 11z"/>
 <path d="M2497 1149 c7 -7 15 -10 18 -7 3 3 -2 9 -12 12 -14 6 -15 5 -6 -5z"/>
 <path d="M2543 1133 c-18 -12 -23 -25 -23 -59 0 -38 4 -45 30 -59 l30 -16 0 76 c0 41 -3 75 -7 74 -5 0 -18 -7 -30 -16z m4 -80 c-2 -16 -4 -5 -4 22 0 28 2 40 4 28 2 -13 2 -35 0 -50z"/>
 <path d="M2375 1130 c-16 -7 -17 -9 -3 -9 9 -1 20 4 23 9 7 11 7 11 -20 0z"/>
 <path d="M2069 581 l-23 -18 66 -37 c36 -20 70 -36 76 -36 6 0 40 17 77 38 l66 39 -25 16 c-23 16 -27 15 -75 -10 -46 -25 -51 -26 -68 -11 -35 32 -70 39 -94 19z m128 -58 c-4 -3 -7 0 -7 7 0 7 3 10 7 7 3 -4 3 -10 0 -14z"/>
 </g>
<g id="layer115" fill="#fbfcfc" stroke="none">
 <path d="M2190 1480 c0 -5 -6 -7 -12 -5 -7 2 -116 -56 -243 -129 l-230 -134 -3 -263 c-1 -145 1 -271 5 -279 5 -8 10 111 13 264 l5 280 125 71 c69 40 168 97 220 127 l95 56 6 -77 c3 -42 6 -67 7 -57 3 28 17 9 17 -22 0 -23 15 -34 118 -93 l117 -68 0 50 c0 27 3 49 7 49 3 0 39 -19 79 -42 l74 -43 0 -87 c0 -96 -5 -103 -50 -68 -29 23 -40 24 -75 8 -25 -11 -25 -12 -23 -117 l2 -106 3 100 c3 79 7 103 20 113 9 6 20 12 25 12 4 0 8 -58 8 -130 l0 -129 83 -49 c45 -27 85 -47 90 -45 4 2 7 125 7 273 l0 270 -38 22 c-21 13 -47 28 -57 35 -72 44 -267 156 -305 174 -14 7 -32 18 -40 24 -22 18 -50 26 -50 15z"/>
 <path d="M1864 1218 c-4 -7 -3 -8 4 -4 12 7 16 16 8 16 -3 0 -8 -5 -12 -12z"/>
 <path d="M895 935 l0 -285 77 0 77 0 0 285 0 285 -77 0 -77 0 0 -285z"/>
 <path d="M1150 935 l0 -285 225 0 225 0 0 70 0 70 -145 0 c-135 0 -145 1 -145 19 0 10 -3 32 -6 49 l-6 31 136 -2 136 -2 0 68 0 67 -129 0 -129 0 -7 27 c-3 15 -3 60 1 100 l6 73 -81 0 -81 0 0 -285z"/>
 <path d="M2780 930 l0 -280 74 0 c87 0 88 1 170 137 l49 82 19 -24 c10 -13 18 -26 18 -29 0 -3 17 -32 37 -63 21 -32 42 -67 48 -78 9 -17 22 -20 93 -23 l82 -3 0 281 0 280 -75 0 -74 0 -3 -157 -3 -157 -70 106 c-53 81 -73 104 -82 96 -7 -6 -13 -15 -13 -20 0 -5 -20 -38 -45 -72 -24 -35 -51 -76 -60 -92 -14 -27 -15 -18 -15 134 l0 162 -75 0 -75 0 0 -280z"/>
 <path d="M3437 1188 c3 -13 9 -27 13 -33 4 -5 17 -38 30 -73 12 -34 27 -65 31 -68 5 -3 9 -12 9 -20 0 -7 14 -44 31 -81 28 -63 47 -106 68 -158 5 -11 17 -39 26 -63 l18 -43 76 3 75 3 37 90 c20 50 42 104 49 120 6 17 18 44 25 60 7 17 18 41 23 55 6 14 25 55 41 92 17 37 31 71 31 75 0 4 7 20 14 36 l15 27 -83 0 -83 0 -21 -50 -21 -51 -107 3 c-115 3 -111 1 -134 66 l-12 32 -78 0 c-76 0 -78 -1 -73 -22z m358 -210 c-7 -22 -20 -54 -50 -121 -10 -24 -13 -26 -18 -10 -8 23 -41 112 -52 136 -6 15 0 17 60 17 64 0 66 -1 60 -22z"/>
 <path d="M4100 949 c0 -160 4 -268 10 -280 9 -15 22 -19 70 -19 77 0 83 11 78 136 -1 52 -1 94 2 94 3 -1 23 -24 45 -52 22 -27 49 -60 60 -72 11 -13 36 -41 55 -64 l35 -42 88 0 c86 0 88 1 74 20 -12 18 -77 89 -165 183 -25 27 -33 42 -26 51 5 7 31 46 59 87 27 41 64 94 82 118 19 24 41 57 49 72 l15 29 -89 0 c-85 0 -88 -1 -104 -27 -14 -24 -113 -161 -123 -172 -2 -2 -15 10 -29 25 -22 25 -25 39 -26 102 l0 72 -80 0 -80 0 0 -261z"/>
 <path d="M4680 949 c0 -160 4 -268 10 -280 10 -18 23 -19 225 -19 l215 0 0 71 0 70 -150 -3 c-122 -2 -149 0 -145 10 3 8 5 27 5 43 l0 29 135 0 135 0 0 60 0 60 -135 0 -135 0 0 45 0 45 150 0 150 0 0 65 0 65 -230 0 -230 0 0 -261z"/>
 <path d="M5212 933 l3 -278 170 0 c155 0 174 2 218 23 86 41 121 128 92 228 -13 46 -23 59 -59 82 l-43 28 24 37 c13 20 41 61 63 89 22 29 40 56 40 61 0 4 -40 7 -90 7 -69 0 -90 -3 -90 -13 0 -8 -9 -22 -20 -32 -11 -10 -20 -22 -20 -27 0 -5 -14 -29 -30 -54 -27 -38 -36 -44 -65 -44 l-35 0 0 85 0 85 -80 0 -80 0 2 -277z m288 -14 c45 -14 59 -34 52 -77 -6 -41 -50 -62 -128 -62 l-54 0 0 75 0 75 46 0 c26 0 63 -5 84 -11z"/>
 <path d="M1794 1178 c-4 -7 -3 -8 4 -4 12 7 16 16 8 16 -3 0 -8 -5 -12 -12z"/>
 <path d="M1951 1164 c0 -11 3 -14 6 -6 3 7 2 16 -1 19 -3 4 -6 -2 -5 -13z"/>
 <path d="M1800 1076 c0 -42 4 -76 8 -76 5 0 18 9 30 20 29 27 32 104 5 114 -10 3 -24 9 -30 12 -10 4 -13 -13 -13 -70z"/>
 <path d="M2527 1123 c-11 -10 -8 -81 3 -88 6 -4 10 13 10 44 0 52 -1 56 -13 44z"/>
 <path d="M1864 1018 c-4 -7 -3 -8 4 -4 12 7 16 16 8 16 -3 0 -8 -5 -12 -12z"/>
 <path d="M1890 896 l0 -134 103 -60 c135 -81 137 -81 137 -45 0 26 -10 34 -95 83 l-95 55 0 104 c0 87 -3 106 -17 117 -10 7 -21 14 -25 14 -5 0 -8 -60 -8 -134z"/>
 <path d="M2398 769 c-21 -11 -38 -22 -38 -24 0 -3 18 4 40 15 22 11 40 23 40 25 0 7 0 7 -42 -16z"/>
 <path d="M1824 738 c-4 -7 -3 -8 4 -4 12 7 16 16 8 16 -3 0 -8 -5 -12 -12z"/>
 <path d="M2434 738 c-4 -7 -3 -8 4 -4 12 7 16 16 8 16 -3 0 -8 -5 -12 -12z"/>
 <path d="M2318 724 c-38 -20 -36 -28 2 -9 17 9 30 18 30 20 0 7 -1 6 -32 -11z"/>
 <path d="M1754 698 c-4 -7 -3 -8 4 -4 12 7 16 16 8 16 -3 0 -8 -5 -12 -12z"/>
 <path d="M2263 693 c-7 -2 -12 -19 -12 -36 2 -28 2 -29 6 -7 3 14 10 31 15 38 11 13 10 13 -9 5z"/>
 <path d="M2072 582 c-22 -15 -22 -15 40 -53 62 -38 81 -38 71 1 -5 17 -45 51 -73 62 -8 3 -25 -1 -38 -10z"/>
 <path d="M2250 579 c-18 -15 -19 -18 -5 -11 11 5 27 11 35 14 8 2 10 7 4 10 -5 4 -21 -3 -34 -13z"/>
 <path d="M2204 548 c-4 -7 -3 -8 4 -4 12 7 16 16 8 16 -3 0 -8 -5 -12 -12z"/>
 <path d="M2284 548 c-4 -7 -3 -8 4 -4 7 4 12 9 12 12 0 8 -9 4 -16 -8z"/>
 <path d="M2210 510 c-9 -6 -10 -10 -3 -10 6 0 15 5 18 10 8 12 4 12 -15 0z"/>
 </g>

</svg>